<?xml version="1.0" encoding="UTF-8" standalone="no"?><!DOCTYPE svg PUBLIC "-//W3C//DTD SVG 1.1//EN" "http://www.w3.org/Graphics/SVG/1.1/DTD/svg11.dtd"><svg width="100%" height="100%" viewBox="0 0 405 378" version="1.1" xmlns="http://www.w3.org/2000/svg" xmlns:xlink="http://www.w3.org/1999/xlink" xml:space="preserve" xmlns:serif="http://www.serif.com/" style="fill-rule:evenodd;clip-rule:evenodd;stroke-linecap:round;stroke-linejoin:round;stroke-miterlimit:1.5;"><rect id="Artboard1" x="0" y="-0" width="405" height="377.206" style="fill:none;"/><clipPath id="_clip1"><rect x="0" y="-0" width="405" height="377.206"/></clipPath><g clip-path="url(#_clip1)"><ellipse cx="207" cy="187.5" rx="180" ry="179.5" style="fill:#88bd24;stroke:#fff;stroke-width:6.25px;"/><path d="M14.296,167.29c-0.089,0 -0.251,0.024 -0.513,0.138c-1.189,0.505 -1.803,2.235 -1.324,3.7c0.581,1.767 1.594,3.219 3.105,4.443c0.743,0.608 1.738,0.954 2.73,0.954c0.77,0 1.484,-0.216 2.013,-0.608c1.235,-0.916 1.454,-2.635 0.557,-4.378c-0.368,-0.711 -0.786,-1.392 -1.208,-2.073c-0.119,-0.195 -0.235,-0.386 -0.354,-0.584c-0.043,0.64 -0.192,1.235 -0.449,1.759c-0.643,1.3 -1.735,2.016 -3.078,2.016c-1.886,-0.062 -2.457,-1.086 -2.643,-1.689c-0.484,-1.619 0.703,-2.511 1.211,-2.889c0.289,-0.23 0.381,-0.335 0.408,-0.37c-0.016,-0.014 -0.054,-0.095 -0.151,-0.222c-0.151,-0.197 -0.238,-0.197 -0.303,-0.197m55.485,26.747c2.335,2.757 5.602,4.608 8.589,4.608c0.319,0 0.63,-0.022 0.94,-0.068c0.676,-0.1 1.276,-0.265 1.786,-0.492c0.362,-0.162 1.13,-0.505 1.603,-0.827c-0.124,-0.003 -0.243,-0.003 -0.341,-0.003c-0.446,0 -0.886,-0.008 -1.251,-0.068c-3.186,-0.508 -7.135,-1.324 -11.326,-3.151m6.662,114.74c-1.432,0 -2.838,-0.776 -3.954,-2.189c-4.537,-5.74 -6.637,-12.515 -6.232,-20.136c0.195,-3.667 2.243,-4.213 3.446,-4.213c0.716,0 1.53,0.184 2.492,0.562c1.638,0.64 3.227,1.422 4.765,2.173c0.797,0.395 1.6,0.786 2.408,1.162c1.489,0.689 2.559,0.984 3.584,0.984c0.454,0 0.889,-0.059 1.33,-0.184c1.019,-0.284 1.47,-0.905 1.462,-2.008c-0.022,-2.478 -1.686,-4.31 -4.24,-4.675c-9.513,-1.354 -17.823,-5.048 -24.698,-10.98c-2.238,-1.932 -3.294,-2.846 -3.151,-4.213c0.149,-1.376 1.413,-2.062 3.932,-3.432c1.027,-0.559 1.897,-0.967 2.767,-1.376c0.149,-0.068 0.295,-0.138 0.443,-0.208c-2.967,-0.176 -5.837,-1.035 -8.553,-2.562c-3.04,-1.711 -5.054,-4.313 -5.673,-7.326c-0.581,-2.854 0.162,-5.81 2.094,-8.324c0.057,-0.078 0.111,-0.176 0.168,-0.276c0.313,-0.53 0.889,-1.522 2.1,-1.522c0.343,0 0.692,0.092 1.027,0.268c1.64,0.851 0.976,2.716 0.757,3.332c-1.276,3.721 -0.105,5.978 3.851,7.708c1.678,0.732 3.367,1.208 5.173,1.451c-0.227,-0.135 -0.451,-0.268 -0.676,-0.403c-2.6,-1.594 -4.235,-3.929 -4.854,-6.945c-0.2,-0.859 -0.643,-2.784 1.181,-3.524c0.286,-0.116 0.581,-0.176 0.878,-0.176c0.716,0 1.743,0.343 2.548,1.965c0.803,1.616 2.062,2.624 3.848,3.078c2.189,0.557 4.316,1.203 6.191,2.667c1.149,-5.213 1.532,-10.664 1.211,-16.95c-0.016,-0.27 -0.062,-0.365 -0.062,-0.365l-0.486,-1.243l0.151,1.34l-0.878,0.103c-1.743,0.205 -3.548,0.419 -5.389,0.419l-0.37,-0.003c-8.791,-0.135 -17.896,-1.911 -28.638,-5.591c-8.191,-2.811 -13.899,-6.029 -18.501,-10.442l-0.257,-0.243c-1.684,-1.603 -3.778,-3.594 -2.821,-7.016c-0.005,-0.07 -0.103,-0.37 -0.295,-0.838c-0.513,-1.224 -0.213,-2.375 0.03,-3.3c0.27,-1.04 0.335,-1.443 -0.016,-1.897l-0.492,-0.63l0.305,-0.908c0.37,-0.857 1.492,-1.349 2.211,-1.438c-0.47,-1.189 -0.754,-2.738 0.695,-4.111c0.589,-0.554 1.332,-0.849 2.157,-0.849c1.273,0 2.373,0.697 2.913,1.116c0.068,0.051 0.132,0.097 0.189,0.138c0.005,-0.114 0.008,-0.673 0.008,-0.673c-0.014,-0.751 -0.054,-2.746 2.038,-3.254c0.297,-0.073 0.6,-0.108 0.9,-0.108c1.011,0 1.978,0.395 2.962,1.208c1.038,0.857 1.784,2.019 2.213,3.448c0.462,1.532 1.386,2.824 3.002,4.183c2.486,2.092 5.205,3.802 7.537,5.205c9.426,5.659 19.145,9.288 28.89,10.783c0.565,0.086 1.138,0.138 1.708,0.138c1.294,0 2.435,-0.265 3.438,-0.8c-2.103,-0.195 -4.102,-0.378 -6.091,-0.67c-10.378,-1.53 -17.853,-5.9 -22.855,-13.356c-0.235,-0.346 -0.513,-0.54 -1.073,-0.732c-2.697,-0.935 -4.597,-2.573 -5.489,-4.737c-0.911,-2.216 -0.7,-4.802 0.611,-7.483c0.357,-0.719 0.5,-1.024 0.454,-1.289c-0.932,-5.286 -0.419,-10.818 1.611,-17.407c0.008,-0.03 0.016,-0.059 0.022,-0.084c-0.076,-0.035 -0.178,-0.076 -0.327,-0.127c-0.681,-0.241 -1.408,-0.351 -2.289,-0.351c-0.819,0 -1.635,0.092 -2.451,0.184l-0.424,0.046c-3.219,0.349 -3.811,1.027 -3.729,4.267c0.022,0.897 0.122,1.794 0.219,2.692c0.097,0.881 0.192,1.759 0.227,2.64c0.213,5.402 -2.881,8.94 -8.28,9.456c-0.332,0.035 -0.662,0.049 -0.989,0.049c-2.203,0 -4.162,-0.678 -6.143,-1.432c-10.324,-3.94 -12.277,-14.085 -9.634,-22.393c0.724,-2.276 2.838,-3.805 5.254,-3.805c0.773,0 1.524,0.159 2.227,0.468c0.576,0.257 1.111,0.662 1.573,1.192c-0.154,-2.327 0.381,-4.77 1.54,-6.121c2.743,-3.202 6.497,-4.962 10.572,-4.962c1.559,0 3.129,0.259 4.67,0.776c1.851,0.619 3.548,1.394 5.116,2.343c-0.249,-1.003 -0.381,-2.046 -0.335,-3.148c0.008,-0.143 0,-0.295 -0.003,-0.449c-0.027,-0.824 -0.081,-2.751 1.981,-3.265c0.268,-0.065 0.54,-0.097 0.808,-0.097c1.181,0 2.313,0.619 3.278,1.794c0.4,0.489 0.692,1.016 0.919,1.546c0.205,-0.792 0.54,-1.608 1.132,-2.348c0.476,-0.597 1.276,-1.6 2.611,-1.6c0.184,0 0.37,0.022 0.557,0.062c1.484,0.316 1.821,1.665 1.984,2.311c0.573,2.021 0.222,3.721 -0.086,5.224c-0.032,0.165 -0.07,0.322 -0.108,0.476c2.292,-1.859 4.87,-3.243 7.789,-4.192c3.527,-1.151 7.359,-2.216 11.478,-2.216c0.351,0 0.7,0.008 1.054,0.024c0,0 0.673,0.041 0.851,0.041c0.303,0 0.395,-0.038 0.405,-0.043c0.692,-3.535 3.384,-4.592 5.848,-5.308l0.576,-0.165c1.508,-0.427 2.93,-0.83 4.046,-1.757c0.443,-0.578 1.011,-1.313 1.978,-1.313c0.613,0 1.165,0.295 1.643,0.878c0.513,0.624 0.738,1.4 0.635,2.184c-0.111,0.835 -0.595,1.619 -1.33,2.148c-0.116,0.084 -0.235,0.165 -0.354,0.243c0.549,0.168 1.081,0.316 1.611,0.424c0.343,0.07 0.705,0.181 1.076,0.297c0.454,0.141 0.927,0.289 1.246,0.289l1.427,0.57l-1.17,-0.681c-0.014,-0.122 -0.292,-0.616 -0.462,-0.913c-0.213,-0.381 -0.422,-0.762 -0.559,-1.13c-0.74,-1.662 -0.538,-2.73 0.503,-3.416c0.376,-0.251 0.795,-0.381 1.238,-0.381c0.865,0 1.519,0.492 1.994,0.846c2.608,1.932 4.2,4.864 4.483,8.14c0.273,3.124 -0.697,6.127 -2.662,8.267c1.324,1.235 2.384,2.638 3.411,4c1.522,2.021 2.962,3.929 5.089,5.14c2.186,1.243 3.313,3.424 4.283,5.551c2.032,4.456 2.611,9.216 1.716,14.148c-2.07,11.429 -9.767,18.458 -17.966,24.263c1.227,-0.057 2.273,-0.351 3.254,-0.916c4.778,-2.754 8.618,-5.259 11.815,-8.548c7.951,-8.178 14.334,-15.885 11.842,-27.398c-0.203,-0.9 -0.7,-3.102 1.565,-3.87c0.408,-0.138 0.822,-0.208 1.222,-0.208c1.205,0 2.281,0.608 3.189,1.805c0.13,0.17 0.268,0.354 0.403,0.53c0.124,-0.224 0.257,-0.465 0.376,-0.684c0.681,-1.254 1.581,-2.092 2.743,-2.565c0.311,-0.122 0.919,-0.327 1.578,-0.327c0.938,0 1.673,0.424 2.021,1.162c0.873,1.835 1.6,2.792 3.159,2.919l1.251,0.105l-0.011,1.254c-0.008,1.119 0.684,1.992 1.484,3.005c0.743,0.938 1.581,2.003 1.921,3.397l0.127,0.57c0.1,0.473 0.241,1.124 0.427,1.324c1.989,2.119 1.124,4.432 0.711,5.546c-3.032,8.099 -8.405,14.672 -13.756,20.571c-5.121,5.646 -11.359,10.453 -18.545,14.294c-0.111,0.062 -0.203,0.114 -0.281,0.159c0.073,0.076 0.165,0.165 0.278,0.27c2.489,2.289 4.305,4.319 5.716,6.389c2.505,3.665 5.805,5.791 10.397,6.694c5.419,1.065 10.505,3.129 15.12,6.137c2.832,1.843 2.194,4.086 1.467,5.616c-2.276,4.786 -5.737,9.14 -10.583,13.31c-1.076,0.927 -1.13,1.305 -0.386,2.694c3.319,6.186 5.105,12.064 5.462,17.966c0.254,4.186 -0.703,7.516 -2.84,9.897c-2.1,2.343 -5.229,3.643 -9.302,3.865c0.435,1.611 0.557,3.108 0.416,4.748c-0.122,1.424 -0.405,4.756 -3.819,5.789c-0.681,0.205 -1.362,0.308 -2.021,0.308c-1.905,0 -3.64,-0.865 -5.027,-2.5c-3.794,-4.492 -5.797,-9.897 -5.945,-16.066c-0.062,-2.581 0.084,-4.165 1.032,-5.135c0.516,-0.53 1.205,-0.797 2.048,-0.797c1.049,0 2.332,0.408 4.059,1.067l0.662,0.259c1.192,0.468 2.313,0.911 3.435,0.911c0.257,0 0.513,-0.024 0.781,-0.076c0.508,-0.097 0.659,-0.168 0.705,-0.203c-0.249,-4.678 -1.697,-8.394 -4.483,-11.41c-0.192,-0.205 -0.27,-0.251 -0.284,-0.259c-3.927,2.624 -8.548,4.038 -13.018,5.405c0,0 -1.643,0.505 -1.665,0.513c0.011,0.019 0.022,0.041 0.032,0.065c0.995,2.048 1.535,4.216 1.927,6.064c0.905,4.278 0.181,8.135 -2.032,10.867c-2.111,2.603 -5.47,4.04 -9.464,4.04c-0.565,0 -1.143,-0.03 -1.738,-0.086c-3.065,-0.295 -5.681,-0.903 -7.997,-1.862l-0.049,-0.022c0.322,2.011 0.135,4.002 -0.557,5.921c-0.857,2.373 -2.546,3.786 -4.521,3.786" style="fill:#008d36;fill-rule:nonzero;"/><path d="M15.83,174.008c1.535,-0.016 2.865,-0.727 3.762,-1.981c0.024,0.043 0.046,0.086 0.07,0.13c0.438,0.851 0.657,2.065 -0.165,2.678c-0.295,0.216 -0.722,0.338 -1.205,0.338c-0.686,0 -1.37,-0.238 -1.878,-0.649c-0.205,-0.168 -0.4,-0.341 -0.584,-0.516m70.46,-33.741c-1.63,0 -2.524,1.157 -2.908,1.651l-0.043,0.057c-0.886,0.686 -2.073,1.022 -3.438,1.411l-0.586,0.168c-1.757,0.508 -5.264,1.527 -6.551,5.264l-0.119,-0.008c-0.373,-0.016 -0.743,-0.024 -1.113,-0.024c-4.302,0 -8.262,1.097 -11.902,2.281c-1.984,0.646 -3.819,1.484 -5.519,2.521c0.054,-0.913 -0.005,-1.876 -0.289,-2.867l-0.051,-0.2c-0.176,-0.695 -0.708,-2.813 -3.013,-3.308c-0.278,-0.059 -0.559,-0.089 -0.838,-0.089c-1.989,0 -3.124,1.422 -3.67,2.105c-0.103,0.132 -0.2,0.262 -0.292,0.395c-1.454,-1.554 -2.948,-1.894 -3.978,-1.894c-0.381,0 -0.762,0.046 -1.135,0.138c-1.422,0.354 -3.1,1.44 -3.008,4.616c0.005,0.122 0.011,0.241 0.005,0.354c-0.011,0.259 -0.011,0.516 -0.005,0.77c-0.957,-0.446 -1.954,-0.843 -2.997,-1.195c-1.678,-0.559 -3.394,-0.846 -5.1,-0.846c-4.473,0 -8.591,1.93 -11.596,5.435c-0.93,1.086 -1.527,2.716 -1.765,4.481c-0.811,-0.324 -1.667,-0.489 -2.548,-0.489c-3.008,0 -5.637,1.908 -6.543,4.746c-2.838,8.913 -0.708,19.812 10.442,24.066c2.019,0.77 4.194,1.522 6.624,1.522c0.37,0 0.74,-0.016 1.116,-0.051c6.197,-0.597 9.751,-4.656 9.502,-10.856c-0.038,-0.943 -0.135,-1.854 -0.232,-2.732c-0.097,-0.905 -0.192,-1.759 -0.211,-2.584c-0.065,-2.535 0.005,-2.616 2.521,-2.889l0.43,-0.046c0.816,-0.089 1.584,-0.176 2.303,-0.176c0.335,0 0.643,0.019 0.93,0.059c-1.765,6.21 -2.176,11.513 -1.311,16.62c-0.049,0.114 -0.132,0.284 -0.2,0.419l-0.105,0.216c-1.486,3.038 -1.708,6.008 -0.643,8.591c1.043,2.53 3.219,4.429 6.291,5.497c0.332,0.116 0.368,0.168 0.395,0.211c1.865,2.778 4.051,5.143 6.583,7.11c-3.311,-1.457 -6.6,-3.165 -9.853,-5.119c-2.289,-1.373 -4.951,-3.051 -7.364,-5.081c-1.422,-1.197 -2.194,-2.254 -2.578,-3.535c-0.505,-1.689 -1.397,-3.07 -2.646,-4.105c-1.219,-1.005 -2.505,-1.516 -3.824,-1.516c-0.408,0 -0.819,0.049 -1.219,0.146c-1.159,0.281 -2.489,1.043 -2.924,2.997c-0.568,-0.213 -1.211,-0.362 -1.908,-0.362c-1.173,0 -2.24,0.422 -3.084,1.222c-1.459,1.381 -1.638,2.919 -1.411,4.213c-0.735,0.365 -1.449,0.946 -1.808,1.784c-0.403,0.94 -0.281,2.019 0.316,2.835c-0.019,0.186 -0.114,0.54 -0.178,0.786c-0.262,1.003 -0.659,2.519 0.032,4.167c0.059,0.143 0.105,0.262 0.138,0.349c-0.905,3.962 1.611,6.356 3.294,7.959l0.251,0.241c6.162,5.905 13.794,8.959 19.001,10.742c10.875,3.729 20.109,5.529 29.055,5.667l0.381,0.003c1.857,0 3.64,-0.203 5.37,-0.405c0.189,4.948 -0.084,9.351 -0.843,13.54c-1.597,-0.859 -3.281,-1.349 -4.924,-1.767c-1.4,-0.354 -2.343,-1.108 -2.97,-2.37c-1.176,-2.359 -2.859,-2.713 -3.759,-2.713c-0.47,0 -0.935,0.095 -1.384,0.276c-1.084,0.438 -2.786,1.649 -2.043,4.851l0.043,0.2c0.313,1.513 0.873,2.897 1.657,4.121c-3.224,-1.573 -3.408,-3.267 -2.608,-5.608l0.051,-0.141c1.159,-3.243 -0.592,-4.57 -1.4,-4.992c-0.532,-0.276 -1.089,-0.419 -1.654,-0.419c-1.984,0 -2.916,1.594 -3.265,2.194l-0.103,0.168c-2.146,2.792 -2.978,6.137 -2.316,9.38c0.697,3.405 2.946,6.329 6.332,8.235c1.584,0.889 3.221,1.57 4.9,2.032c-2.473,1.349 -3.956,2.262 -4.167,4.224c-0.222,2.07 1.173,3.275 3.486,5.27l0.127,0.111c7.072,6.102 15.612,9.902 25.387,11.294c1.911,0.273 3.062,1.524 3.078,3.348c0.005,0.562 -0.097,0.589 -0.478,0.697c-0.319,0.089 -0.632,0.132 -0.962,0.132c-0.816,0 -1.716,-0.257 -3.016,-0.857c-0.795,-0.37 -1.584,-0.757 -2.373,-1.143c-1.562,-0.768 -3.178,-1.562 -4.873,-2.227c-1.122,-0.441 -2.097,-0.654 -2.986,-0.654c-1.057,0 -4.527,0.397 -4.797,5.494c-0.419,7.959 1.776,15.042 6.527,21.047c1.378,1.743 3.157,2.702 5.013,2.702c2.527,0 4.746,-1.794 5.789,-4.681c0.519,-1.432 0.784,-2.905 0.792,-4.394c1.932,0.605 4.048,1.016 6.413,1.243c0.64,0.059 1.262,0.089 1.867,0.089c4.408,0 8.143,-1.611 10.515,-4.54c2.473,-3.054 3.292,-7.313 2.3,-11.994c-0.324,-1.53 -0.743,-3.267 -1.43,-5.008l0.213,-0.065c4.165,-1.276 8.462,-2.589 12.467,-4.867c2.013,2.451 3.127,5.319 3.443,8.764l-0.011,0c-0.865,0 -1.824,-0.376 -2.938,-0.813l-0.676,-0.265c-1.873,-0.713 -3.284,-1.157 -4.54,-1.157c-1.522,0 -2.481,0.654 -3.019,1.203c-1.408,1.446 -1.473,3.624 -1.413,6.113c0.154,6.486 2.262,12.175 6.264,16.907c1.649,1.949 3.743,2.981 6.059,2.981c0.792,0 1.603,-0.124 2.411,-0.368c4.292,-1.297 4.656,-5.564 4.775,-6.967c0.111,-1.289 0.073,-2.497 -0.116,-3.659c3.719,-0.481 6.61,-1.878 8.662,-4.167c2.386,-2.662 3.459,-6.321 3.184,-10.88c-0.37,-6.1 -2.208,-12.159 -5.621,-18.526c-0.176,-0.33 -0.262,-0.54 -0.3,-0.659c0.068,-0.081 0.184,-0.203 0.378,-0.37c4.992,-4.3 8.564,-8.797 10.921,-13.753c1.819,-3.824 -0.057,-6.097 -1.949,-7.329c-4.765,-3.102 -10.013,-5.232 -15.602,-6.332c-4.275,-0.838 -7.218,-2.73 -9.54,-6.129c-1.257,-1.843 -2.811,-3.646 -4.837,-5.605c6.754,-3.783 12.653,-8.432 17.555,-13.837c5.443,-6 10.907,-12.696 14.018,-21.007c0.424,-1.135 1.543,-4.124 -0.884,-6.829c-0.065,-0.178 -0.143,-0.549 -0.197,-0.803c-0.043,-0.205 -0.086,-0.405 -0.135,-0.6c-0.408,-1.681 -1.386,-2.919 -2.173,-3.913c-0.765,-0.97 -1.197,-1.549 -1.192,-2.159l0.019,-2.508l-2.5,-0.208c-0.665,-0.054 -1.138,-0.227 -2.051,-2.154c-0.573,-1.211 -1.786,-1.932 -3.243,-1.932c-0.84,0 -1.594,0.232 -2.078,0.427c-1.116,0.449 -2.059,1.186 -2.811,2.197c-1.224,-1.119 -2.484,-1.384 -3.4,-1.384c-0.549,0 -1.105,0.095 -1.657,0.281c-1.027,0.349 -3.327,1.562 -2.486,5.275l0.035,0.157c2.351,10.861 -3.813,18.28 -11.488,26.174c-0.978,1.003 -2.021,1.935 -3.14,2.824c4.002,-4.383 7.105,-9.659 8.335,-16.442c0.943,-5.205 0.335,-10.234 -1.813,-14.948c-1.013,-2.227 -2.311,-4.721 -4.846,-6.164c-1.884,-1.073 -3.243,-2.873 -4.678,-4.778c-0.83,-1.103 -1.681,-2.227 -2.675,-3.286c1.667,-2.305 2.459,-5.248 2.194,-8.289c-0.319,-3.659 -2.108,-6.945 -4.908,-9.016l-0.108,-0.081c-0.559,-0.419 -1.492,-1.122 -2.811,-1.122c-0.703,0 -1.389,0.211 -1.986,0.605c-0.176,0.119 -0.403,0.289 -0.624,0.519c-0.065,-0.089 -0.13,-0.178 -0.203,-0.265c-0.927,-1.132 -1.973,-1.37 -2.686,-1.37m-7.921,59.728c0.386,0 0.768,-0.027 1.14,-0.081c0.727,-0.108 1.465,-0.297 2.135,-0.595c1.224,-0.546 2.911,-1.297 2.775,-2.546c-0.127,-1.197 -1.997,-0.743 -3.1,-0.919c-5.162,-0.827 -10.145,-2.178 -15.153,-5.205c2.184,5.478 7.581,9.345 12.202,9.345m7.921,-57.025c0.173,0 0.37,0.105 0.597,0.381c0.622,0.759 0.386,1.784 -0.443,2.381c-0.857,0.619 -1.838,1.062 -2.921,1.67c1.703,0.527 3.175,1.103 4.7,1.416c0.816,0.168 1.762,0.613 2.594,0.613c0.451,0 0.87,-0.13 1.219,-0.508c1.005,-1.086 -0.289,-2.327 -0.722,-3.473c-0.222,-0.595 -0.754,-1.324 -0.016,-1.813c0.165,-0.111 0.33,-0.157 0.492,-0.157c0.465,0 0.908,0.373 1.311,0.673c4.492,3.321 5.202,10.429 1.416,14.41c-0.441,0.465 -0.951,0.835 -0.251,1.432c3.397,2.905 5.097,7.381 9.172,9.702c1.851,1.051 2.848,3.013 3.724,4.937c1.949,4.275 2.448,8.745 1.613,13.342c-2.013,11.113 -9.621,17.993 -18.312,24.031c-0.632,0.438 -1.621,0.4 -1.905,1.543c1.073,0.162 2.113,0.292 3.138,0.292c1.476,0 2.919,-0.27 4.373,-1.105c4.354,-2.508 8.613,-5.181 12.11,-8.775c7.716,-7.937 14.883,-16.201 12.194,-28.628c-0.173,-0.8 -0.527,-1.894 0.678,-2.303c0.276,-0.095 0.538,-0.138 0.786,-0.138c0.849,0 1.535,0.511 2.113,1.27c0.8,1.054 1.219,1.6 1.592,1.6c0.397,0 0.743,-0.627 1.449,-1.924c0.481,-0.884 1.122,-1.576 2.067,-1.957c0.327,-0.13 0.722,-0.23 1.067,-0.23c0.359,0 0.668,0.105 0.803,0.389c0.903,1.903 1.943,3.497 4.27,3.689c-0.022,2.838 2.83,4.208 3.44,6.732c0.211,0.865 0.327,1.908 0.884,2.5c1.273,1.357 0.962,2.719 0.427,4.148c-2.908,7.77 -8.018,14.107 -13.488,20.136c-5.2,5.732 -11.342,10.356 -18.18,14.01c-1.511,0.808 -1.67,1.338 -0.284,2.616c2.024,1.859 3.975,3.894 5.519,6.154c2.773,4.067 6.394,6.308 11.248,7.262c5.2,1.022 10.14,3.005 14.648,5.943c1.67,1.086 1.8,2.192 0.984,3.902c-2.424,5.097 -6.032,9.24 -10.242,12.867c-1.624,1.397 -1.697,2.492 -0.697,4.356c2.908,5.427 4.927,11.175 5.302,17.412c0.462,7.605 -3.381,11.967 -10.996,12.337c-1.1,0.051 -1.5,0.457 -1.157,1.546c0.454,1.44 0.562,2.919 0.432,4.429c-0.173,2.038 -0.651,3.94 -2.865,4.608c-0.562,0.17 -1.105,0.254 -1.63,0.254c-1.53,0 -2.884,-0.708 -3.997,-2.024c-3.713,-4.392 -5.491,-9.572 -5.627,-15.226c-0.076,-3.259 0.211,-4.548 1.732,-4.548c0.803,0 1.954,0.359 3.575,0.978c1.5,0.573 2.965,1.257 4.578,1.257c0.338,0 0.681,-0.03 1.035,-0.097c0.938,-0.178 1.797,-0.438 1.749,-1.63c-0.195,-4.621 -1.597,-8.778 -4.789,-12.226c-0.332,-0.359 -0.692,-0.668 -1.13,-0.668c-0.192,0 -0.4,0.062 -0.627,0.203c-4.489,2.805 -9.545,4.181 -14.531,5.727c-1.151,0.357 -1.365,0.919 -0.851,1.973c0.889,1.821 1.4,3.778 1.819,5.751c1.659,7.843 -2.627,13.272 -10.172,13.272c-0.522,0 -1.059,-0.024 -1.611,-0.078c-2.608,-0.249 -5.178,-0.759 -7.608,-1.765c-0.519,-0.216 -0.946,-0.346 -1.267,-0.346c-0.613,0 -0.849,0.473 -0.64,1.732c0.295,1.784 0.132,3.586 -0.486,5.302c-0.681,1.881 -1.916,2.897 -3.248,2.897c-0.973,0 -1.994,-0.54 -2.894,-1.676c-4.432,-5.605 -6.318,-12.129 -5.945,-19.228c0.105,-2.003 0.768,-2.935 2.097,-2.935c0.549,0 1.213,0.159 1.997,0.468c2.427,0.951 4.729,2.208 7.099,3.305c1.343,0.622 2.708,1.108 4.151,1.108c0.551,0 1.113,-0.07 1.692,-0.232c1.7,-0.478 2.467,-1.694 2.451,-3.324c-0.027,-3.205 -2.211,-5.546 -5.4,-6c-9.01,-1.281 -17.074,-4.683 -24.004,-10.664c-3.708,-3.202 -3.705,-3.127 0.73,-5.54c2.651,-1.44 5.597,-2.367 7.94,-4.483c-1.5,0.332 -2.97,0.5 -4.413,0.5c-3.14,0 -6.148,-0.797 -9.043,-2.424c-5.383,-3.027 -6.786,-8.943 -3.167,-13.65c0.335,-0.435 0.6,-1.267 1.195,-1.267c0.122,0 0.254,0.035 0.405,0.114c0.659,0.343 0.238,1.289 0.041,1.862c-1.592,4.662 0.511,7.41 4.648,9.216c2.705,1.181 5.513,1.757 8.702,1.757c0.816,0 1.657,-0.038 2.527,-0.111c-2.221,-1.203 -3.902,-2.016 -5.486,-2.986c-2.27,-1.392 -3.694,-3.443 -4.235,-6.064c-0.146,-0.703 -0.495,-1.651 0.365,-1.997c0.13,-0.054 0.254,-0.078 0.37,-0.078c0.624,0 1.07,0.673 1.338,1.213c1,2.013 2.603,3.248 4.727,3.789c2.675,0.678 5.27,1.486 7.272,3.994c1.789,-6.713 2.146,-13.15 1.811,-19.655c-0.057,-1.095 -0.527,-1.567 -1.484,-1.567c-0.13,0 -0.265,0.008 -0.411,0.027c-2.035,0.232 -4.062,0.511 -6.127,0.511c-0.114,0 -0.227,0 -0.341,-0.003c-9.743,-0.149 -19.085,-2.389 -28.219,-5.521c-6.594,-2.259 -12.877,-5.221 -18.007,-10.137c-1.659,-1.589 -3.489,-3.138 -2.711,-5.918c0.141,-0.505 -0.127,-1.186 -0.351,-1.724c-0.757,-1.803 1.265,-3.667 -0.165,-5.505c-0.203,-0.259 0.611,-0.757 1.149,-0.808c0.362,-0.038 0.727,-0.041 1.127,-0.041c0.062,0 0.124,0.003 0.189,0.003c0.173,0 0.351,-0.003 0.54,-0.005c-0.57,-1.543 -1.867,-3.057 -0.424,-4.421c0.362,-0.343 0.786,-0.481 1.224,-0.481c0.735,0 1.508,0.384 2.094,0.835c0.705,0.543 1.205,0.786 1.559,0.786c0.643,0 0.795,-0.813 0.813,-2.094c0.011,-0.803 -0.186,-1.949 1.003,-2.238c0.2,-0.049 0.392,-0.07 0.581,-0.07c0.773,0 1.467,0.373 2.1,0.897c0.9,0.743 1.462,1.727 1.781,2.797c0.605,2.016 1.84,3.492 3.429,4.829c2.408,2.024 5.032,3.719 7.71,5.327c9.107,5.473 18.858,9.348 29.379,10.961c0.638,0.097 1.278,0.154 1.916,0.154c2.419,0 4.802,-0.805 6.713,-3.197c-3.284,-0.338 -6.243,-0.53 -9.17,-0.962c-8.999,-1.327 -16.693,-4.962 -21.931,-12.769c-0.441,-0.657 -1.005,-0.997 -1.754,-1.259c-4.805,-1.667 -6.386,-5.686 -4.108,-10.348c0.332,-0.678 0.711,-1.324 0.57,-2.116c-1.005,-5.735 -0.116,-11.299 1.57,-16.777c0.362,-1.17 -0.1,-1.516 -1.143,-1.884c-0.919,-0.322 -1.83,-0.427 -2.738,-0.427c-1.008,0 -2.011,0.13 -3.021,0.238c-3.902,0.422 -5.035,1.681 -4.935,5.643c0.046,1.789 0.376,3.567 0.446,5.356c0.189,4.751 -2.367,7.605 -7.059,8.056c-0.289,0.027 -0.576,0.041 -0.859,0.041c-1.984,0 -3.824,-0.643 -5.662,-1.343c-9.818,-3.748 -11.148,-13.437 -8.829,-20.72c0.576,-1.808 2.243,-2.865 3.967,-2.865c0.565,0 1.138,0.114 1.678,0.354c1.862,0.822 3.048,4.132 2.13,5.991c-0.378,0.77 -0.976,1.265 -1.865,1.265l-0.078,0c-0.543,-0.019 -1.095,-0.149 -1.27,-0.732c-0.249,-0.824 0.435,-1.173 0.951,-1.586c0.851,-0.684 0.965,-1.459 0.289,-2.33c-0.4,-0.513 -0.868,-0.719 -1.37,-0.719c-0.335,0 -0.689,0.092 -1.049,0.246c-1.824,0.781 -2.775,3.213 -2.07,5.364c0.668,2.035 1.865,3.716 3.532,5.073c1.019,0.827 2.321,1.254 3.584,1.254c1.03,0 2.027,-0.286 2.819,-0.873c1.743,-1.297 2.165,-3.729 0.954,-6.083c-0.684,-1.324 -1.546,-2.554 -2.267,-3.862c-1.273,-2.311 -1.043,-6.613 0.397,-8.297c2.516,-2.935 5.929,-4.492 9.545,-4.492c1.397,0 2.824,0.232 4.24,0.708c3.186,1.065 6.043,2.686 8.54,5.019c-1.1,-2.273 -2.078,-4.51 -1.978,-7.051c0.038,-0.935 -0.281,-2.148 0.954,-2.454c0.162,-0.041 0.324,-0.059 0.484,-0.059c0.878,0 1.649,0.589 2.235,1.303c0.724,0.878 1,1.986 1.357,3.046c0.354,1.057 0.727,2.108 1.092,3.159c0.378,-1.151 0.413,-2.194 0.516,-3.229c0.138,-1.34 0.308,-2.697 1.184,-3.794c0.405,-0.508 0.87,-1.089 1.557,-1.089c0.086,0 0.178,0.008 0.273,0.03c0.77,0.165 0.854,0.978 1.032,1.605c0.422,1.486 0.105,2.957 -0.195,4.424c-0.305,1.5 -1.057,2.905 -1.059,4.789c2.97,-3.473 6.459,-5.721 10.497,-7.037c3.594,-1.17 7.24,-2.148 11.064,-2.148c0.33,0 0.659,0.008 0.992,0.022c0.284,0.014 0.6,0.043 0.913,0.043c0.751,0 1.486,-0.17 1.694,-1.165c0.568,-2.738 2.624,-3.57 4.937,-4.24c1.778,-0.516 3.611,-0.938 5.102,-2.178c0.343,-0.286 0.662,-1 1.119,-1" style="fill:#fff;fill-rule:nonzero;"/><path d="M138.402,42.436c-0.76,0 -1.431,0.107 -1.941,0.307c-1.121,0.44 -2.081,2.49 -1.746,5.158c0.277,2.213 1.365,4.33 2.833,5.824c-0.307,-0.546 -0.531,-1.179 -0.623,-1.921c-0.066,-0.523 -0.14,-1.835 0.617,-2.691c0.371,-0.422 0.882,-0.653 1.438,-0.653c0.259,0 0.529,0.051 0.795,0.152c0.252,0.094 0.473,0.137 0.678,0.137c0.513,0 0.961,-0.3 1.644,-0.79c0.028,-0.018 0.056,-0.038 0.081,-0.058c-0.036,-0.366 0.023,-0.673 0.102,-0.91c0.244,-0.709 0.839,-1.248 1.771,-1.601c0.28,-0.107 0.409,-0.198 0.455,-0.236c-0.005,0.003 -0.01,0.003 -0.015,0.003c-0.074,0 -0.206,-0.239 -0.562,-0.724c-0.818,-1.1 -3.298,-1.997 -5.529,-1.997m29.741,34.62c1.194,2.45 3.316,5.186 5.656,7.006c-0.437,-0.976 -0.45,-1.972 -0.02,-2.821c0.536,-1.06 1.664,-1.695 3.103,-1.746l0.287,-0.003c1.766,0 3.27,0.541 4.472,1.616c0.277,0.249 0.389,0.269 0.389,0.272c0.948,-0.605 1.957,-1.278 3.08,-1.278c0.617,0 1.497,0.206 2.185,1.189c0.338,0.48 0.701,1.253 0.59,2.272c1.705,-1.385 2.993,-3.235 4.045,-5.723c0.008,-0.018 0.015,-0.033 0.023,-0.048c-0.02,0.003 -0.038,0.005 -0.056,0.008c-4.165,0.676 -7.857,1.004 -11.285,1.004c-2.706,0 -5.232,-0.198 -7.72,-0.605c-1.476,-0.241 -2.999,-0.607 -4.749,-1.143m-8.541,55.521c-2.404,0 -4.376,0.521 -6.035,1.596c-1.349,0.869 -2.129,1.807 -2.325,2.78c-0.196,0.971 0.158,2.129 1.055,3.443c2.551,3.746 8.79,6.571 14.51,6.571c1.415,0 2.706,-0.178 3.837,-0.531c-0.643,-0.196 -1.273,-0.46 -1.883,-0.826c-0.75,-0.452 -2.506,-1.509 -2.335,-3.555c0.14,-1.662 1.565,-2.183 2.427,-2.427c-0.612,-0.564 -1.07,-1.197 -1.377,-1.898c-0.75,2.376 -2.988,4.033 -6.18,4.462c-0.516,0.069 -1.029,0.114 -1.527,0.114c-1.692,0 -3.019,-0.544 -4.056,-1.659c-0.95,-1.019 -1.184,-2.335 -0.645,-3.606c0.854,-2.01 2.866,-2.218 3.525,-2.287l0.351,-0.018c1.108,0 2.007,0.567 2.531,1.598c0.16,0.318 0.577,1.151 0.274,2.015c1.06,-0.391 1.804,-1.359 1.86,-2.521c0.038,-0.78 -0.246,-1.542 -0.795,-2.145c-0.605,-0.663 -1.459,-1.049 -2.401,-1.09c-0.269,-0.013 -0.541,-0.018 -0.808,-0.018m50.258,123.676c-1.939,0 -3.461,-1.575 -4.815,-3.278c-2.65,-3.326 -4.505,-7.041 -6.325,-10.876c-1.992,-4.193 -2.3,-8.065 -0.943,-11.839c0.307,-0.854 0.391,-1.85 0.48,-2.904l0.058,-0.686c0.859,-8.955 0.462,-18.072 -0.094,-26.588l-0.053,-0.856c-0.262,-3.992 -0.529,-8.119 -1.448,-12.04l-0.074,-0.343c-0.267,-1.207 -0.399,-1.299 -0.577,-1.299c-1.431,0.135 -1.873,0.582 -1.921,1.845c-0.186,4.739 -0.574,10.314 -2.061,15.74c-1.591,5.794 -5.044,8.983 -9.73,8.983c-1.263,0 -2.61,-0.234 -4.017,-0.696c0.506,1.733 0.546,2.503 0.043,3.197c-0.356,0.49 -0.91,0.739 -1.642,0.739l-0.076,0c-0.041,0.935 -0.358,2.282 -2.107,2.582c-0.188,0.033 -0.361,0.046 -0.521,0.046c-1.311,0 -1.911,-0.869 -2.229,-1.596c-0.597,0.539 -1.352,0.971 -2.34,0.971c-0.198,0 -0.401,-0.018 -0.615,-0.056c-2.081,-0.371 -2.511,-2.162 -2.765,-3.232c-0.048,-0.201 -0.097,-0.396 -0.152,-0.579c-1.964,-6.447 -1.847,-12.96 -1.537,-19.622c0.119,-2.528 1.738,-2.727 2.231,-2.727c0.551,0 1.154,0.196 1.832,0.6c2.025,1.197 3.265,2.986 4.465,4.716l0.213,0.307c0.917,1.316 1.769,2.478 2.902,3.331c0.943,0.706 1.888,1.08 2.737,1.08c1.817,0 2.706,-1.71 3.072,-2.729c0.252,-0.706 0.47,-1.433 0.633,-2.165c1.448,-6.584 1.182,-12.365 -0.813,-17.678l-0.033,-0.091c-0.79,0.724 -1.581,1.339 -2.488,1.339c-1.474,0 -2.155,-1.489 -2.701,-2.686c-0.003,-0.008 -0.008,-0.018 -0.01,-0.025c-0.661,0.47 -1.326,0.684 -1.985,0.684c-1.565,0 -2.61,-1.182 -3.263,-2.068c-0.282,-0.386 -0.671,-0.666 -0.928,-0.666c-0.244,0 -0.513,0.295 -0.653,0.473c-0.887,1.131 -1.946,1.728 -3.059,1.728c-0.46,0 -0.91,-0.104 -1.347,-0.307c-2.028,-0.945 -1.555,-3.222 -1.4,-3.969c0.023,-0.114 0.036,-0.203 0.043,-0.272c-0.097,-0.015 -0.241,-0.03 -0.447,-0.038c-1.225,-0.046 -3.016,-0.246 -4.48,-1.489c-1.42,-1.204 -1.481,-2.399 -1.39,-3.001c0.091,-0.61 0.508,-1.743 2.249,-2.485c0.785,-0.333 1.621,-0.503 2.485,-0.503c0.526,0 1.055,0.064 1.565,0.191c0.226,0.056 0.437,0.084 0.62,0.084c0.529,0 0.996,-0.198 1.812,-1.212c2.808,-3.484 5.176,-7.425 7.168,-11.948c-4.95,3.006 -10.002,4.531 -15.015,4.531c-2.208,0 -4.462,-0.295 -6.693,-0.874l-0.252,-0.061c-0.765,-0.183 -2.048,-0.483 -2.887,-2.035l-1.235,-2.287l2.564,0.429c2.475,0.417 5.387,0.841 8.208,0.841c1.436,0 2.762,-0.104 4.053,-0.318c2.295,-0.381 4.518,-0.839 6.454,-1.863c-0.592,0.053 -1.187,0.079 -1.789,0.079c-2.201,0 -4.447,-0.335 -6.869,-1.027c-4.193,-1.199 -10.042,-3.575 -12.388,-10.345c-0.983,-2.856 -0.246,-5.458 2.079,-7.323c2.503,-2.013 5.435,-3.032 8.713,-3.032c1.136,0 2.328,0.122 3.55,0.366c3.001,0.597 5.036,2.399 5.641,4.871c0.282,-0.32 0.783,-0.668 1.611,-0.668c0.305,0 0.63,0.046 1.001,0.14c1.972,0.506 3.601,1.316 4.983,2.475c0.554,0.465 1.057,0.988 1.565,1.517c0.374,0.391 0.734,0.77 1.116,1.118c1.349,-5.433 2.218,-11.234 2.645,-17.673c0.071,-1.039 -0.03,-1.171 -0.981,-1.299c-19.757,-2.64 -38.787,-7.588 -56.565,-14.708c-0.584,-0.234 -1.131,-0.348 -1.67,-0.348c-0.429,0 -0.861,0.069 -1.319,0.216c-1.54,0.49 -2.912,0.729 -4.198,0.729c-0.628,0 -1.248,-0.056 -1.847,-0.17c-0.714,-0.135 -2.612,-0.493 -3.087,-2.292c-0.091,-0.341 -0.104,-0.645 -0.064,-0.912c-0.658,-0.043 -1.311,-0.097 -1.959,-0.178c-1.497,-0.191 -2.533,-1.103 -2.709,-2.384c-0.244,-1.797 1.299,-2.333 1.804,-2.508c0.109,-0.038 0.219,-0.069 0.313,-0.119c0.028,-0.015 0.053,-0.028 0.076,-0.041c-0.541,-0.196 -1.075,-0.422 -1.601,-0.694c-0.562,-0.292 -1.875,-0.973 -1.695,-2.559c0.142,-1.235 1.065,-2.096 2.465,-2.31c0.269,-0.041 0.536,-0.076 0.811,-0.112c-0.981,-0.928 -0.963,-1.921 -0.844,-2.48c0.142,-0.645 0.633,-1.715 2.333,-1.715l0.323,0.008l0.236,1.276l0.104,-1.271c1.903,0 3.847,0.437 5.939,1.344c0.043,0.018 0.081,0.036 0.119,0.048c-0.14,-1.016 0.028,-1.781 0.508,-2.34c0.287,-0.33 0.816,-0.727 1.708,-0.727c0.414,0 0.872,0.086 1.398,0.259l0.3,0.097c0.856,0.272 2.03,0.643 2.671,1.715c1.898,3.164 5.11,4.315 8.508,5.535c0.539,0.193 1.083,0.386 1.621,0.59c7.463,2.813 15.447,5.25 24.628,7.501c-1.296,-0.612 -2.559,-1.311 -3.786,-2.119c-1.72,-1.136 -3.352,-2.424 -4.927,-3.672c-2.101,-1.662 -4.274,-3.38 -6.625,-4.686c-0.483,-0.267 -0.821,-0.676 -1.034,-0.958l-0.341,-0.455c-1.512,-2 -3.392,-4.493 -2.506,-7.382c0.567,-1.84 0.178,-3.293 -0.267,-4.981c-0.432,-1.634 -0.615,-3.324 -0.551,-5.164l0.114,-2.902c-0.9,0.246 -1.809,0.366 -2.749,0.366c-1.652,0 -3.349,-0.368 -5.344,-1.161c-1.575,-0.628 -3.258,-1.057 -5.001,-1.278c-0.595,-0.074 -1.184,-0.122 -1.764,-0.122c-2.048,0 -3.436,0.59 -4.493,1.916c-1.456,1.825 -1.499,3.702 -0.145,5.908c0.714,1.161 0.371,1.995 -0.043,2.488l-0.15,0.18l-0.208,0.114c-0.292,0.163 -0.605,0.244 -0.925,0.244c-0.61,0 -1.049,-0.297 -1.311,-0.473c-4.129,-2.696 -4.838,-6.871 -4.998,-10.604c-0.165,-3.873 2.467,-7.194 6.401,-8.078c0.91,-0.203 1.832,-0.307 2.742,-0.307c1.164,0 2.317,0.163 3.481,0.493c-2.127,-2.483 -3.425,-5.456 -4.569,-8.37c-0.79,-2.015 -1.906,-4.231 -4.206,-5.382c-2.025,-1.011 -4.175,-1.504 -6.569,-1.504c-1.827,0 -3.807,0.29 -6.05,0.882c-2.127,0.562 -3.682,1.55 -4.752,3.021c-0.638,0.877 -0.569,1.159 -0.391,1.489c0.33,0.6 1.146,2.066 -0.145,3.169c-0.401,0.346 -0.884,0.529 -1.39,0.529c-0.732,0 -1.309,-0.371 -1.73,-0.64c-1.964,-1.212 -3.451,-3.763 -4.139,-6.937c-0.712,-3.281 -0.404,-6.325 0.826,-8.144c2.424,-3.588 5.994,-5.494 9.151,-6.996l0.188,-0.091l10.017,-1.179l1.042,0.186c0.656,0.117 1.311,0.231 1.959,0.361c8.243,1.639 13.725,4.953 17.252,10.424c0.595,0.922 0.828,1.093 0.902,1.123c0.02,-0.005 0.285,-0.036 1.116,-0.617c2.107,-1.479 4.688,-2.297 7.27,-2.297c3.248,0 6.18,1.25 8.05,3.425c0.861,1.006 2.65,3.095 1.695,5.629c-0.516,1.367 -1.514,2.081 -2.526,2.46c0.79,1.212 1.088,2.625 1.26,4.012c0.541,-0.338 1.055,-0.661 1.558,-0.999c3.613,-2.427 7.613,-4.798 12.368,-5.687c1.53,-0.287 3.08,-0.356 4.582,-0.422c0.564,-0.025 1.128,-0.048 1.69,-0.086c2.511,-0.163 4.208,-0.976 5.344,-2.559c0.625,-0.874 0.562,-1.598 -0.196,-2.277c-0.737,-0.656 -1.062,-0.795 -1.202,-0.795c-0.076,0 -0.282,0.145 -0.541,0.536c-0.468,0.706 -1.154,1.113 -1.891,1.113c-0.417,0 -1.212,-0.14 -1.842,-1.067c-1.271,-1.875 -1.184,-3.37 0.262,-4.442c1.202,-0.894 2.681,-1.395 4.399,-1.481c0.28,-0.013 0.557,-0.02 0.831,-0.02c3.019,0 5.941,0.854 8.685,2.536c2.592,1.586 4.099,3.372 4.752,5.621c0.584,2.023 -0.198,3.603 -1.23,4.917c4.18,1.642 7.194,3.941 9.178,6.996c1.423,2.183 3.303,3.608 6.297,4.767c3.474,1.344 8.287,3.824 9.971,9.844c2.376,8.51 -0.066,20.875 -9.27,27.03c-0.905,0.605 -1.832,1.182 -2.757,1.758c-2.267,1.41 -4.411,2.744 -6.266,4.5l-0.28,0.252c-0.107,0.091 -0.267,0.231 -0.302,0.29c1.438,3.011 3.301,4.292 6.312,4.292c0.196,0 0.399,-0.005 0.605,-0.015c0.356,-0.02 0.709,-0.056 1.06,-0.094l0.648,-0.066c7.415,-0.658 14.83,-2.203 22.003,-3.695c3.151,-0.656 6.302,-1.311 9.466,-1.901c6.205,-1.151 10.652,-2.915 14.416,-5.71c0.978,-0.724 2.127,-1.164 2.907,-1.431c0.452,-0.155 0.854,-0.229 1.232,-0.229c0.854,0 1.367,0.384 1.647,0.709c0.498,0.569 0.663,1.365 0.513,2.432c-0.069,0.47 -0.272,0.859 -0.488,1.187c0.381,-0.097 0.811,-0.196 1.271,-0.196c0.49,0.03 0.737,0.036 0.986,0.036l1.728,-0.03c0.269,0 0.539,0.005 0.808,0.023c0.806,0.053 1.667,0.244 2.488,0.549c2.099,0.78 2.241,2.157 2.14,2.91c-0.135,0.961 -0.727,1.448 -1.334,1.713c0.468,0.3 0.912,0.691 1.293,1.238c0.066,0.097 0.158,0.178 0.244,0.264c0.381,0.379 1.169,1.169 0.887,2.378c-0.353,1.527 -1.741,1.86 -2.485,2.041c-0.544,0.135 -0.986,0.201 -1.441,0.219c0.282,0.31 0.539,0.653 0.762,1.039c0.097,0.17 0.958,1.713 0.374,2.724l-0.366,0.635l-0.839,0.061c-0.313,-0.028 -0.432,-0.036 -0.544,-0.036c-0.889,0 -1.624,0.496 -2.478,1.072c-0.582,0.396 -1.189,0.803 -1.906,1.098c-0.335,0.137 -0.701,0.208 -1.085,0.208c-1.215,0 -2.48,-0.696 -3.303,-1.814c-0.234,-0.32 -0.516,-0.605 -0.793,-0.892c-0.396,-0.409 -0.79,-0.823 -1.108,-1.286c-0.633,-0.915 -1.146,-1.1 -1.725,-1.1c-0.341,0 -0.732,0.069 -1.204,0.211c-8.294,2.503 -16.863,4.663 -25.464,6.426c-6.302,1.288 -11.488,2.203 -16.322,2.879c-0.658,0.091 -0.9,0.231 -0.961,0.274c0.028,0.025 0.061,0.272 0.346,0.775c0.534,0.955 0.92,1.959 1.296,2.93c7.417,19.175 11.082,39.146 13.689,56.158c0.254,1.644 0.658,2.267 1.728,2.666c1.553,0.579 2.803,1.631 3.852,2.574c0.44,0.394 1.601,1.438 0.955,2.948c-0.597,1.39 -2.074,1.499 -2.556,1.535c-0.14,0.01 -0.282,0.015 -0.419,0.015c-1.263,0 -2.368,-0.417 -3.311,-0.813c-0.401,1.418 -1.431,2.198 -2.838,2.201c-1.423,0 -2.559,-0.879 -2.981,-2.297c-0.03,0.02 -0.417,0.28 -0.417,0.28c-0.104,0.14 -0.056,0.462 -0.025,0.656c0.028,0.188 0.053,0.379 0.069,0.564c0.602,7.628 0.529,14.599 -0.224,21.31c-0.602,5.39 -1.588,10.828 -2.47,15.524c0.976,-0.391 1.84,-0.574 2.691,-0.574c0.224,0 0.447,0.013 0.676,0.041c1.766,0.208 3.039,1.049 3.489,2.307c0.414,1.161 0.033,2.47 -1.047,3.593c-0.523,0.544 -0.701,0.833 -0.76,0.961c0.079,0.013 0.32,0.178 0.869,0.404c1.286,0.526 2.007,1.71 1.797,2.945c-0.213,1.271 -1.171,1.995 -2.843,2.15c-0.231,0.02 -0.465,0.03 -0.694,0.03c-1.436,0 -2.775,-0.412 -3.954,-0.861c1.784,2.991 3.423,5.979 4.157,9.425c0.483,2.262 1.146,5.367 -1.288,6.673c-0.529,0.282 -1.083,0.424 -1.652,0.424" style="fill:#36a9e1;fill-rule:nonzero;"/><path d="M159.769,143.577c0.513,0 1.052,-0.041 1.695,-0.127c1.382,-0.186 2.625,-0.59 3.68,-1.174c-0.02,1.568 0.775,2.681 1.581,3.42c-3.113,-0.018 -6.449,-0.955 -9.123,-2.419c0.671,0.198 1.393,0.3 2.168,0.3m-5.608,-2.887c-0.307,-0.328 -0.579,-0.663 -0.816,-1.009c-0.478,-0.704 -1.016,-1.705 -0.859,-2.478c0.158,-0.78 1.049,-1.499 1.769,-1.967c0.333,-0.213 0.678,-0.401 1.037,-0.567c-0.605,0.485 -1.07,1.11 -1.395,1.873c-0.597,1.405 -0.49,2.894 0.264,4.147m8.091,-5.517c-0.371,-0.523 -0.836,-0.94 -1.37,-1.23c0.389,0.107 0.729,0.313 0.991,0.597c0.173,0.191 0.302,0.407 0.379,0.633m25.269,-55.495c0.724,-0.076 1.461,-0.168 2.216,-0.269c-0.346,0.587 -0.717,1.123 -1.116,1.614c-0.099,-0.183 -0.198,-0.338 -0.287,-0.462c-0.239,-0.343 -0.513,-0.635 -0.813,-0.882m-15.059,1.405c-0.582,-0.628 -1.131,-1.301 -1.629,-1.992c0.633,0.142 1.248,0.262 1.855,0.361c0.252,0.041 0.503,0.081 0.755,0.117c-0.32,0.318 -0.59,0.686 -0.798,1.098c-0.069,0.137 -0.13,0.274 -0.183,0.417m-36.274,-32.252c-0.094,-0.358 -0.168,-0.722 -0.213,-1.088c-0.269,-2.155 0.478,-3.634 0.953,-3.819c0.206,-0.081 0.673,-0.219 1.474,-0.219c1.657,0 3.253,0.559 4.058,1.093c-0.808,0.567 -1.194,1.245 -1.377,1.781c-0.066,0.191 -0.122,0.407 -0.155,0.651c-0.203,0.135 -0.396,0.249 -0.473,0.249c-0.013,0 -0.084,-0.003 -0.234,-0.058c-0.409,-0.152 -0.826,-0.231 -1.24,-0.231c-0.925,0 -1.774,0.384 -2.391,1.083c-0.155,0.178 -0.29,0.366 -0.401,0.559m-26.524,-21.559l-0.379,0.043l-9.618,1.136l-0.417,0.048l-0.379,0.18c-3.55,1.692 -7.176,3.763 -9.656,7.433c-1.418,2.099 -1.797,5.509 -1.014,9.12c0.363,1.685 1.537,5.801 4.551,7.649l0.147,0.094c0.49,0.315 1.309,0.841 2.412,0.841c0.813,0 1.578,-0.287 2.216,-0.833c0.77,-0.658 1.855,-2.124 0.531,-4.571c0.043,-0.071 0.107,-0.17 0.206,-0.305c0.892,-1.225 2.216,-2.056 4.053,-2.541c2.135,-0.564 4.007,-0.839 5.723,-0.839c2.193,0 4.155,0.447 6,1.37c1.545,0.772 2.584,2.137 3.593,4.709c0.818,2.081 1.71,4.193 2.917,6.16c-0.216,-0.01 -0.432,-0.015 -0.645,-0.015c-1.004,0 -2.023,0.114 -3.024,0.341c-4.543,1.019 -7.58,4.874 -7.39,9.369c0.163,3.819 0.935,8.586 5.504,11.567c0.391,0.262 1.08,0.727 2.076,0.727c0.536,0 1.052,-0.135 1.532,-0.399l0.424,-0.231l0.307,-0.371c0.447,-0.536 1.354,-1.997 0.142,-3.964c-1.339,-2.178 -0.724,-3.471 0.056,-4.449c0.803,-1.006 1.85,-1.438 3.497,-1.438c0.48,0 1.006,0.038 1.609,0.114c1.634,0.206 3.209,0.607 4.691,1.197c2.147,0.854 3.995,1.253 5.812,1.253c0.475,0 0.948,-0.028 1.415,-0.086c-0.018,0.44 -0.033,0.874 -0.048,1.309c-0.066,1.967 0.127,3.776 0.592,5.532c0.473,1.781 0.717,2.859 0.28,4.282c-1.077,3.509 1.108,6.401 2.704,8.515l0.338,0.452c0.282,0.376 0.737,0.922 1.433,1.311c2.264,1.255 4.3,2.866 6.457,4.571c0.628,0.496 1.263,0.999 1.911,1.497c-5.939,-1.657 -11.392,-3.43 -16.591,-5.392c-0.544,-0.203 -1.093,-0.401 -1.639,-0.597c-3.316,-1.189 -6.183,-2.216 -7.847,-4.993c-0.889,-1.484 -2.389,-1.959 -3.382,-2.272l-0.28,-0.091c-0.658,-0.216 -1.245,-0.323 -1.797,-0.323c-1.07,0 -2.018,0.417 -2.668,1.169c-0.335,0.389 -0.574,0.841 -0.714,1.352c-1.685,-0.569 -3.296,-0.849 -4.892,-0.849l-0.13,0l-0.165,-0.003c-0.122,-0.005 -0.246,-0.01 -0.368,-0.01c-2.198,0 -3.286,1.403 -3.57,2.714c-0.086,0.394 -0.168,1.088 0.064,1.873c-1.413,0.534 -2.348,1.677 -2.518,3.154c-0.17,1.461 0.455,2.653 1.86,3.542c-0.813,0.915 -0.851,1.995 -0.755,2.699c0.252,1.847 1.746,3.209 3.809,3.474c0.313,0.038 0.625,0.071 0.938,0.102c0.005,0.015 0.01,0.033 0.013,0.048c0.678,2.579 3.242,3.062 4.084,3.222c0.676,0.127 1.377,0.191 2.081,0.191c1.42,0 2.92,-0.259 4.584,-0.79c0.33,-0.104 0.638,-0.158 0.933,-0.158c0.374,0 0.765,0.084 1.197,0.259c17.841,7.143 36.935,12.113 56.75,14.771c-0.366,5.479 -1.055,10.49 -2.091,15.198c-0.356,-0.363 -0.732,-0.727 -1.149,-1.077c-1.532,-1.286 -3.326,-2.178 -5.486,-2.732c-0.473,-0.122 -0.902,-0.18 -1.314,-0.18c-0.33,0 -0.645,0.038 -0.945,0.114c-1.08,-2.16 -3.217,-3.728 -6.063,-4.294c-1.301,-0.259 -2.577,-0.389 -3.794,-0.389c-3.575,0 -6.777,1.113 -9.514,3.311c-2.734,2.198 -3.639,5.38 -2.478,8.729c2.536,7.331 8.769,9.875 13.239,11.15c0.572,0.165 1.133,0.307 1.687,0.435c-1.019,0.137 -2.068,0.203 -3.192,0.203c-2.727,0 -5.573,-0.417 -7.994,-0.823l-5.118,-0.859l2.457,4.569c1.108,2.056 2.866,2.47 3.71,2.671l0.226,0.053c2.335,0.61 4.696,0.917 7.013,0.917c4.071,0 8.154,-0.953 12.19,-2.841c-1.568,3.001 -3.334,5.715 -5.331,8.19c-0.396,0.49 -0.673,0.739 -0.821,0.739c-0.058,0 -0.158,-0.008 -0.318,-0.048c-0.61,-0.15 -1.24,-0.226 -1.868,-0.226c-1.037,0 -2.041,0.203 -2.986,0.605c-2.307,0.986 -2.874,2.594 -3.006,3.464c-0.13,0.867 -0.066,2.559 1.825,4.16c1.403,1.189 2.999,1.586 4.302,1.723c-0.16,2.653 1.301,3.779 2.267,4.228c0.605,0.282 1.24,0.427 1.883,0.427c1.367,0 2.688,-0.658 3.763,-1.86c0.579,0.77 1.959,2.391 4.139,2.391c0.478,0 0.948,-0.076 1.42,-0.231c0.63,1.118 1.606,2.259 3.278,2.259c0.686,0 1.293,-0.208 1.852,-0.526c1.418,4.653 1.494,9.715 0.239,15.414c-0.14,0.638 -0.338,1.314 -0.59,2.01c-0.307,0.861 -0.884,1.888 -1.875,1.888c-0.562,0 -1.263,-0.292 -1.972,-0.826c-0.981,-0.737 -1.769,-1.814 -2.622,-3.042l-0.213,-0.305c-1.217,-1.756 -2.597,-3.748 -4.861,-5.087c-0.882,-0.521 -1.692,-0.775 -2.478,-0.775c-1.53,0 -3.367,1.032 -3.502,3.939c-0.315,6.775 -0.432,13.407 1.593,20.049c0.048,0.16 0.086,0.333 0.13,0.506c0.262,1.098 0.877,3.672 3.779,4.188c0.292,0.051 0.569,0.076 0.836,0.076c0.767,0 1.423,-0.186 1.987,-0.468c0.557,0.602 1.372,1.093 2.584,1.093c0.224,0 0.468,-0.018 0.734,-0.064c1.182,-0.203 2.526,-0.856 2.993,-2.699c0.877,-0.246 1.39,-0.778 1.644,-1.128c0.488,-0.673 0.666,-1.321 0.595,-2.203c0.806,0.15 1.591,0.226 2.351,0.226c3.075,0 8.589,-1.288 10.955,-9.918c1.522,-5.547 1.919,-11.214 2.107,-16.024c0.003,-0.079 0.008,-0.145 0.013,-0.206l0.053,0.241c0.894,3.824 1.149,7.725 1.415,11.857l0.053,0.831c0.554,8.464 0.95,17.521 0.099,26.384l-0.061,0.706c-0.081,0.968 -0.16,1.88 -0.409,2.577c-1.476,4.109 -1.154,8.302 0.988,12.815c1.852,3.898 3.741,7.684 6.477,11.12c0.971,1.22 2.993,3.758 5.812,3.758c0.78,0 1.537,-0.193 2.249,-0.574c3.283,-1.758 2.434,-5.728 1.977,-7.862l-0.043,-0.196c-0.549,-2.584 -1.565,-4.894 -2.77,-7.125c0.429,0.061 0.872,0.097 1.326,0.097c0.267,0 0.536,-0.013 0.811,-0.038c3.037,-0.282 3.794,-2.127 3.977,-3.202c0.267,-1.581 -0.506,-3.138 -1.916,-4.005c1.171,-1.405 1.537,-3.037 1.004,-4.536c-0.617,-1.73 -2.272,-2.877 -4.541,-3.143c-0.274,-0.033 -0.549,-0.048 -0.818,-0.048c-0.358,0 -0.714,0.025 -1.075,0.079c0.78,-4.228 1.586,-8.929 2.112,-13.615c0.706,-6.287 0.821,-12.794 0.353,-19.841c0.587,0.297 1.25,0.457 1.954,0.457c1.545,-0.003 2.793,-0.684 3.527,-1.852c0.828,0.277 1.69,0.465 2.633,0.465c0.168,0 0.341,-0.005 0.511,-0.018c2.259,-0.17 3.222,-1.347 3.631,-2.305c0.457,-1.072 0.607,-2.704 -1.273,-4.391c-1.136,-1.019 -2.493,-2.162 -4.259,-2.821c-0.48,-0.178 -0.699,-0.259 -0.915,-1.667c-2.622,-17.089 -6.304,-37.153 -13.742,-56.374c-0.318,-0.818 -0.625,-1.619 -1.011,-2.412c4.673,-0.671 9.687,-1.563 15.701,-2.795c4.579,-0.938 9.149,-1.988 13.675,-3.143c4.011,-1.023 7.988,-2.128 11.904,-3.309c0.429,-0.132 0.691,-0.158 0.836,-0.158c0.14,0 0.3,0 0.678,0.549c0.401,0.579 0.849,1.044 1.243,1.451c0.267,0.274 0.516,0.534 0.681,0.76c1.057,1.438 2.714,2.333 4.328,2.333c0.551,0 1.08,-0.104 1.57,-0.305c0.836,-0.343 1.525,-0.808 2.132,-1.217c0.811,-0.546 1.291,-0.856 1.766,-0.856c0.058,0 0.122,0.005 0.186,0.013l0.165,0.023l0.193,0c0.945,0 1.83,-0.508 2.305,-1.332c0.706,-1.222 0.262,-2.661 -0.109,-3.481c0.945,-0.262 2.577,-0.91 3.037,-2.892c0.44,-1.896 -0.77,-3.108 -1.225,-3.563c-0.048,-0.048 -0.097,-0.094 -0.14,-0.142c-0.104,-0.15 -0.211,-0.29 -0.323,-0.422c0.33,-0.44 0.536,-0.966 0.62,-1.578c0.097,-0.709 0.168,-3.11 -2.953,-4.274c-0.935,-0.346 -1.921,-0.564 -2.851,-0.625c-0.297,-0.018 -0.595,-0.025 -0.892,-0.025c-0.31,0 -0.623,0.008 -0.933,0.015c-0.264,0.008 -0.529,0.015 -0.793,0.015c-0.155,0 -0.31,-0.003 -0.465,-0.01c0.094,-1.232 -0.193,-2.244 -0.856,-3.011c-0.643,-0.739 -1.57,-1.149 -2.61,-1.149c-0.518,0 -1.057,0.099 -1.644,0.3c-0.859,0.295 -2.132,0.783 -3.253,1.614c-3.598,2.673 -7.883,4.363 -13.89,5.481c-3.179,0.59 -6.386,1.258 -9.488,1.903c-7.138,1.484 -14.517,3.021 -21.859,3.674l-0.684,0.069c-0.325,0.033 -0.653,0.069 -0.981,0.086c-0.183,0.01 -0.361,0.015 -0.536,0.015c-2.241,0 -3.616,-0.795 -4.701,-2.788c1.728,-1.598 3.761,-2.861 5.908,-4.198c0.938,-0.584 1.875,-1.166 2.79,-1.779c9.704,-6.49 12.284,-19.49 9.786,-28.43c-1.835,-6.566 -7.006,-9.245 -10.734,-10.688c-2.724,-1.052 -4.424,-2.333 -5.69,-4.274c-1.898,-2.92 -4.645,-5.186 -8.345,-6.876c0.704,-1.293 1.085,-2.846 0.551,-4.696c-0.734,-2.536 -2.472,-4.615 -5.308,-6.353c-2.948,-1.807 -6.094,-2.722 -9.349,-2.722c-0.297,0 -0.595,0.008 -0.894,0.023c-1.969,0.099 -3.685,0.681 -5.097,1.73c-0.945,0.704 -2.894,2.714 -0.554,6.172c0.699,1.032 1.753,1.624 2.892,1.624c1.019,0 1.967,-0.462 2.661,-1.288c0.041,0.036 0.084,0.074 0.13,0.114c0.15,0.135 0.193,0.221 0.201,0.236c-0.008,0.003 -0.03,0.127 -0.193,0.351c-0.907,1.268 -2.262,1.893 -4.391,2.033c-0.551,0.036 -1.105,0.061 -1.662,0.084c-1.545,0.069 -3.141,0.14 -4.762,0.442c-4.948,0.928 -9.064,3.349 -12.777,5.839c-0.119,-0.468 -0.267,-0.933 -0.457,-1.387c0.922,-0.612 1.591,-1.461 1.997,-2.541c1.22,-3.242 -1.062,-5.9 -1.921,-6.904c-2.109,-2.457 -5.395,-3.868 -9.013,-3.868c-2.841,0 -5.682,0.9 -8.002,2.528c-0.025,0.02 -0.053,0.038 -0.079,0.056c-0.043,-0.064 -0.089,-0.132 -0.137,-0.211c-3.728,-5.781 -9.471,-9.27 -18.07,-10.98c-0.653,-0.13 -1.306,-0.246 -1.959,-0.363l-0.879,-0.155l-0.374,-0.069Zm69.021,60.12c0.165,0 0.328,-0.008 0.49,-0.023c-1.555,-0.938 -2.94,-1.873 -3.906,-3.275c-1.141,-1.664 -0.386,-3.26 1.654,-3.329c0.081,-0.003 0.165,-0.005 0.246,-0.005c1.321,0 2.587,0.366 3.624,1.296c0.401,0.361 0.795,0.592 1.232,0.592c0.282,0 0.587,-0.099 0.922,-0.323c0.653,-0.44 1.441,-0.953 2.16,-0.953c0.419,0 0.816,0.175 1.146,0.645c0.859,1.225 0.091,2.661 -0.892,3.761c-0.285,0.315 -0.617,0.587 -1.339,1.268c4.912,-1.672 7.407,-4.759 9.079,-8.711c0.562,-1.329 0.452,-1.87 -0.567,-1.87c-0.234,0 -0.513,0.028 -0.844,0.081c-3.685,0.597 -7.379,0.986 -11.082,0.986c-2.5,0 -5.003,-0.178 -7.514,-0.59c-2.366,-0.386 -4.655,-1.077 -7.057,-1.926c1.136,4.876 7.392,12.375 12.645,12.375m-69.103,-57.551c0.933,0.168 1.868,0.325 2.798,0.508c6.658,1.326 12.617,3.957 16.428,9.867c0.729,1.128 1.248,1.7 1.946,1.7c0.488,0 1.067,-0.28 1.868,-0.844c1.992,-1.398 4.315,-2.066 6.541,-2.066c2.78,0 5.415,1.039 7.085,2.983c1.075,1.253 2.091,2.706 1.471,4.353c-0.633,1.682 -2.348,2.02 -4.028,2.081l-0.003,-0.003l-0.003,0c-0.61,-1.004 0.005,-1.535 0.818,-1.845c1.906,-0.729 1.24,-1.83 0.447,-2.902c-1.123,-1.509 -4.04,-2.511 -6.551,-2.511c-0.884,0 -1.718,0.125 -2.404,0.394c-1.85,0.729 -2.922,3.471 -2.544,6.5c0.549,4.383 3.916,8.396 7.575,9.001c0.272,0.046 0.6,0.175 0.882,0.175c0.267,0 0.498,-0.114 0.612,-0.521c0.173,-0.612 -0.488,-0.821 -0.91,-1.072c-1.601,-0.943 -3.166,-1.913 -3.428,-3.995c-0.104,-0.826 0.064,-1.916 0.795,-1.916c0.104,0 0.221,0.023 0.348,0.071c0.414,0.155 0.785,0.219 1.126,0.219c1.311,0 2.173,-0.976 3.232,-1.598l0,0.003l0.005,0c2.582,1.512 2.605,4.178 2.894,6.993c1.253,-0.79 2.305,-1.415 3.321,-2.099c3.674,-2.467 7.494,-4.668 11.895,-5.494c2.002,-0.374 4.078,-0.356 6.122,-0.488c2.528,-0.165 4.759,-0.95 6.292,-3.087c0.996,-1.387 0.874,-2.838 -0.381,-3.962c-0.638,-0.572 -1.334,-1.121 -2.048,-1.121c-0.529,0 -1.067,0.3 -1.601,1.108c-0.226,0.341 -0.526,0.539 -0.833,0.539c-0.269,0 -0.549,-0.155 -0.788,-0.508c-0.592,-0.874 -1.164,-1.868 -0.033,-2.709c1.075,-0.798 2.358,-1.164 3.707,-1.23c0.257,-0.013 0.513,-0.02 0.767,-0.02c2.879,0 5.535,0.826 8.022,2.348c1.939,1.187 3.55,2.676 4.193,4.894c0.6,2.068 -0.737,3.56 -2.203,5.125c4.312,1.4 7.964,3.519 10.309,7.123c1.743,2.678 4.053,4.157 6.902,5.26c4.31,1.667 7.847,4.15 9.204,9.003c2.091,7.478 0.29,19.584 -8.749,25.632c-3.098,2.071 -6.454,3.796 -9.191,6.388c-0.546,0.518 -1.278,0.902 -0.785,1.995c1.537,3.41 3.832,5.034 7.39,5.034c0.219,0 0.445,-0.005 0.673,-0.018c0.584,-0.03 1.169,-0.112 1.753,-0.163c10.693,-0.95 21.071,-3.657 31.586,-5.611c5.448,-1.014 10.48,-2.625 14.939,-5.939c0.752,-0.559 1.667,-0.945 2.561,-1.25c0.315,-0.109 0.59,-0.163 0.821,-0.163c0.762,0 1.06,0.582 0.902,1.692c-0.13,0.915 -1.553,1.67 -0.77,2.493c0.213,0.226 0.475,0.305 0.765,0.305c0.623,0 1.372,-0.356 2.048,-0.356c0.048,0 0.094,0.003 0.142,0.005c0.28,0.023 0.562,0.03 0.844,0.03c0.574,0 1.151,-0.03 1.725,-0.03c0.241,0 0.483,0.005 0.724,0.02c0.719,0.048 1.454,0.219 2.132,0.473c0.689,0.254 1.436,0.699 1.321,1.548c-0.104,0.765 -0.925,0.849 -1.565,0.953c-0.879,0.145 -1.769,0.219 -2.653,0.323c1.476,1.133 3.331,1.047 4.394,2.569c0.363,0.526 1.108,0.887 0.935,1.629c-0.193,0.839 -1.042,0.966 -1.733,1.138c-0.422,0.107 -0.841,0.147 -1.276,0.147c-1.199,0 -2.49,-0.31 -4.119,-0.379c1.822,1.171 3.283,1.896 4.101,3.314c0.274,0.478 0.6,1.517 0.269,1.517l-0.025,0c-0.178,-0.025 -0.351,-0.036 -0.518,-0.036c-2,0 -3.22,1.591 -4.864,2.264c-0.188,0.076 -0.391,0.114 -0.605,0.114c-0.785,0 -1.69,-0.496 -2.279,-1.296c-0.562,-0.765 -1.342,-1.372 -1.88,-2.15c-0.785,-1.136 -1.649,-1.647 -2.77,-1.647c-0.473,0 -0.994,0.091 -1.57,0.264c-8.35,2.518 -16.804,4.645 -25.355,6.399c-5.39,1.103 -10.792,2.104 -16.24,2.866c-1.916,0.267 -2.577,1.093 -1.55,2.93c0.501,0.892 0.872,1.86 1.24,2.816c6.973,18.019 10.685,36.838 13.603,55.843c0.272,1.774 0.783,3.009 2.539,3.662c1.309,0.49 2.406,1.395 3.448,2.33c0.435,0.391 0.917,0.841 0.635,1.499c-0.262,0.612 -0.9,0.727 -1.484,0.77c-0.109,0.008 -0.216,0.013 -0.323,0.013c-1.006,0 -1.944,-0.343 -2.864,-0.734c-0.295,-0.125 -0.572,-0.208 -0.813,-0.208c-0.399,0 -0.701,0.231 -0.823,0.897c-0.168,0.917 -0.699,1.431 -1.654,1.433l-0.005,0c-0.955,0 -1.537,-0.63 -1.761,-1.41c-0.244,-0.846 -0.557,-1.128 -0.91,-1.128c-0.422,0 -0.905,0.401 -1.405,0.722c-0.994,0.635 -0.602,1.56 -0.536,2.391c0.554,7.029 0.567,14.045 -0.221,21.066c-0.587,5.252 -1.517,10.446 -2.495,15.633c-0.193,1.027 -0.14,1.601 0.475,1.601c0.246,0 0.584,-0.091 1.034,-0.285c0.775,-0.333 1.601,-0.587 2.475,-0.587c0.173,0 0.346,0.01 0.521,0.03c2.45,0.29 3.354,2.015 1.675,3.758c-1.598,1.659 -1.598,2.541 0.546,3.42c0.592,0.244 1.149,0.818 1.024,1.558c-0.15,0.887 -1.011,1.032 -1.708,1.095c-0.193,0.018 -0.384,0.028 -0.574,0.028c-1.428,0 -2.775,-0.478 -4.106,-1.016c-0.483,-0.193 -0.938,-0.623 -1.532,-0.623c-0.246,0 -0.513,0.074 -0.818,0.267c0.409,0.714 0.793,1.405 1.199,2.084c1.779,2.963 3.489,5.967 4.216,9.387c0.394,1.847 1.009,4.401 -0.648,5.288c-0.356,0.191 -0.706,0.274 -1.049,0.274c-1.474,0 -2.818,-1.537 -3.822,-2.8c-2.574,-3.23 -4.406,-6.912 -6.17,-10.627c-1.67,-3.514 -2.259,-7.074 -0.894,-10.866c0.437,-1.217 0.485,-2.589 0.61,-3.901c0.856,-8.932 0.49,-17.869 -0.094,-26.791c-0.287,-4.386 -0.523,-8.8 -1.53,-13.102c-0.252,-1.083 -0.435,-2.625 -1.891,-2.625c-0.071,0 -0.145,0.005 -0.224,0.013c-1.649,0.163 -2.882,0.872 -2.968,3.057c-0.201,5.197 -0.63,10.396 -2.018,15.452c-1.451,5.296 -4.427,8.048 -8.503,8.048c-1.332,0 -2.78,-0.292 -4.33,-0.887c-0.534,-0.206 -0.889,-0.806 -1.512,-0.806c-0.069,0 -0.142,0.008 -0.219,0.023c1.314,4.025 1.603,4.909 0.445,4.909c-0.325,0 -0.767,-0.071 -1.334,-0.16c-0.145,1.014 0.437,2.503 -1.062,2.76c-0.112,0.02 -0.213,0.028 -0.305,0.028c-1.359,0 -1.044,-1.888 -1.934,-2.556c-0.752,0.894 -1.451,1.931 -2.638,1.931c-0.125,0 -0.254,-0.013 -0.389,-0.036c-1.548,-0.277 -1.578,-1.794 -1.926,-2.935c-1.913,-6.282 -1.786,-12.731 -1.484,-19.19c0.048,-1.039 0.384,-1.514 0.963,-1.514c0.32,0 0.717,0.145 1.184,0.422c1.898,1.123 3.07,2.915 4.282,4.658c0.928,1.329 1.875,2.638 3.181,3.619c1.199,0.902 2.396,1.337 3.499,1.337c1.852,0 3.43,-1.235 4.269,-3.57c0.272,-0.757 0.503,-1.537 0.676,-2.323c1.367,-6.208 1.405,-12.36 -0.864,-18.398c-0.226,-0.6 -0.399,-1.309 -0.91,-1.309c-0.241,0 -0.559,0.158 -0.991,0.562c-0.826,0.772 -1.367,1.169 -1.807,1.169c-0.554,0 -0.948,-0.63 -1.548,-1.941c-0.17,-0.376 -0.198,-1.154 -0.691,-1.154c-0.173,0 -0.399,0.091 -0.706,0.328c-0.651,0.498 -1.222,0.739 -1.753,0.739c-0.79,0 -1.492,-0.534 -2.236,-1.548c-0.44,-0.6 -1.156,-1.184 -1.954,-1.184c-0.534,-0.003 -1.103,0.262 -1.649,0.955c-0.529,0.671 -1.243,1.245 -2.063,1.245c-0.259,0 -0.529,-0.058 -0.808,-0.188c-1.037,-0.485 -0.879,-1.675 -0.694,-2.561c0.3,-1.464 -0.323,-1.791 -1.603,-1.837c-1.321,-0.048 -2.64,-0.287 -3.702,-1.189c-1.474,-1.245 -1.245,-2.587 0.536,-3.347c0.643,-0.274 1.321,-0.401 1.987,-0.401c0.427,0 0.851,0.051 1.258,0.152c0.335,0.084 0.643,0.122 0.928,0.122c1.182,0 1.985,-0.673 2.8,-1.687c4.198,-5.207 7.153,-11.067 9.354,-17.34c0.16,-0.457 0.572,-0.912 0.158,-1.514c-0.783,1.997 -1.891,3.725 -3.7,4.846c-4.635,2.874 -9.501,4.526 -14.649,4.526c-2.076,0 -4.2,-0.269 -6.373,-0.833c-0.772,-0.203 -1.697,-0.28 -2.338,-1.471c2.899,0.488 5.672,0.859 8.416,0.859c1.423,0 2.841,-0.099 4.261,-0.335c4.15,-0.689 8.109,-1.687 10.754,-5.402c-2.099,0.762 -4.2,1.095 -6.294,1.095c-2.188,0 -4.363,-0.363 -6.518,-0.978c-5.181,-1.479 -9.633,-4.035 -11.537,-9.539c-0.803,-2.32 -0.269,-4.361 1.667,-5.916c2.409,-1.934 5.09,-2.752 7.923,-2.752c1.08,0 2.183,0.117 3.298,0.341c3.171,0.63 4.889,2.722 4.8,5.418c-0.089,2.574 -2.132,4.422 -5.352,4.854c-0.457,0.061 -0.912,0.104 -1.354,0.104c-1.151,0 -2.229,-0.285 -3.128,-1.255c-0.61,-0.656 -0.752,-1.428 -0.407,-2.244c0.46,-1.08 1.413,-1.408 2.488,-1.52c0.074,-0.008 0.147,-0.01 0.216,-0.01c0.64,0 1.105,0.32 1.4,0.902c0.196,0.386 0.404,0.844 0.076,1.238c-0.114,0.14 -0.244,0.188 -0.381,0.188c-0.196,0 -0.409,-0.099 -0.617,-0.168c-0.259,-0.084 -0.577,-0.31 -0.846,-0.31c-0.175,0 -0.33,0.097 -0.432,0.396c-0.198,0.574 0.409,0.928 0.851,1.131c0.518,0.234 1.11,0.404 1.675,0.417c0.036,0.003 0.071,0.003 0.107,0.003c2.208,0 4.002,-1.733 4.104,-3.916c0.112,-2.345 -1.786,-4.449 -4.409,-4.564c-0.287,-0.013 -0.572,-0.018 -0.859,-0.018c-2.358,0 -4.655,0.455 -6.731,1.799c-3.291,2.127 -3.842,4.757 -1.629,8.007c2.892,4.244 9.697,7.125 15.559,7.125c1.738,0 3.395,-0.254 4.841,-0.803c0.907,-0.343 1.936,-0.546 2.582,-1.675c-1.812,-0.17 -3.408,-0.394 -4.81,-1.24c-0.894,-0.536 -1.819,-1.222 -1.725,-2.361c0.086,-1.042 1.171,-1.207 1.997,-1.443c1.222,-0.353 1.52,-0.844 0.401,-1.705c-0.839,-0.648 -1.446,-1.448 -1.685,-2.5c-0.226,-1.006 -0.061,-1.621 0.772,-1.621c0.191,0 0.417,0.03 0.684,0.099c1.654,0.424 3.148,1.1 4.483,2.218c1.415,1.187 2.478,2.808 4.254,3.784c1.799,-6.604 2.719,-13.12 3.156,-19.711c0.104,-1.532 -0.3,-2.404 -2.081,-2.643c-19.345,-2.584 -38.129,-7.367 -56.26,-14.629c-0.727,-0.29 -1.431,-0.44 -2.142,-0.44c-0.559,0 -1.123,0.091 -1.705,0.28c-1.248,0.396 -2.518,0.668 -3.812,0.668c-0.531,0 -1.067,-0.046 -1.609,-0.147c-0.887,-0.168 -1.852,-0.44 -2.096,-1.37c-0.269,-1.027 0.953,-1.093 1.512,-1.705c-1.575,-0.099 -3.1,-0.13 -4.602,-0.32c-0.714,-0.091 -1.497,-0.46 -1.611,-1.296c-0.137,-1.014 0.846,-1.011 1.456,-1.334c1.077,-0.572 2.439,-0.363 3.57,-1.326c-1.825,-0.478 -3.547,-0.844 -5.108,-1.657c-0.523,-0.272 -1.1,-0.587 -1.019,-1.291c0.091,-0.772 0.717,-1.09 1.395,-1.194c1.253,-0.188 2.518,-0.307 4.32,-0.521c-1.161,-0.691 -1.791,-1.039 -2.394,-1.431c-0.579,-0.379 -1.065,-0.912 -0.907,-1.629c0.135,-0.625 0.607,-0.714 1.088,-0.714c0.183,0 0.366,0.013 0.531,0.013l0.132,0c1.896,0 3.718,0.498 5.438,1.243c0.493,0.213 0.905,0.341 1.22,0.341c0.584,0 0.836,-0.437 0.668,-1.575c-0.18,-1.22 0.219,-1.68 0.948,-1.68c0.287,0 0.625,0.071 1.001,0.196c0.833,0.274 1.83,0.506 2.279,1.255c2.455,4.096 6.742,5.146 10.767,6.663c11.211,4.226 22.761,7.262 34.46,9.758c4.803,1.024 9.643,1.875 14.474,2.762c0.254,0.048 0.574,0.147 0.861,0.147c0.348,0 0.648,-0.147 0.727,-0.712c0.114,-0.826 -0.048,-1.647 -1.088,-1.868c-0.358,-0.076 -0.719,-0.142 -1.083,-0.178c-2.188,-0.224 -4.383,-0.386 -6.564,-0.661c-6.958,-0.877 -13.849,-2.201 -19.795,-6.119c-3.984,-2.625 -7.42,-6.066 -11.638,-8.409c-0.249,-0.137 -0.457,-0.376 -0.63,-0.607c-1.502,-2.013 -3.405,-4.249 -2.65,-6.703c0.658,-2.135 0.241,-3.814 -0.254,-5.677c-0.417,-1.575 -0.562,-3.174 -0.506,-4.795c0.051,-1.507 0.117,-3.016 0.186,-4.803c-1.41,0.676 -2.77,0.953 -4.094,0.953c-1.667,0 -3.278,-0.437 -4.874,-1.072c-1.718,-0.684 -3.497,-1.128 -5.311,-1.357c-0.648,-0.081 -1.293,-0.135 -1.926,-0.135c-2.079,0 -4.015,0.554 -5.484,2.396c-1.87,2.345 -1.776,4.854 -0.231,7.364c0.188,0.307 0.363,0.653 0.066,1.006c-0.109,0.061 -0.211,0.086 -0.31,0.086c-0.257,0 -0.473,-0.173 -0.689,-0.315c-3.464,-2.259 -4.193,-5.804 -4.353,-9.544c-0.142,-3.354 2.112,-6.043 5.407,-6.785c0.839,-0.188 1.659,-0.277 2.467,-0.277c1.87,0 3.672,0.48 5.438,1.329c0.615,0.295 1.217,0.783 1.967,0.783c0.221,0 0.457,-0.043 0.712,-0.147c-0.122,-0.295 -0.147,-0.577 -0.29,-0.666c-4.129,-2.541 -6.05,-6.622 -7.733,-10.912c-0.973,-2.483 -2.279,-4.782 -4.82,-6.053c-2.343,-1.171 -4.732,-1.639 -7.138,-1.639c-2.114,0 -4.244,0.361 -6.373,0.922c-2.145,0.569 -4.089,1.626 -5.456,3.502c-0.64,0.877 -1.065,1.764 -0.48,2.841c0.277,0.513 0.694,1.133 0.145,1.601c-0.188,0.16 -0.376,0.224 -0.564,0.224c-0.427,0 -0.849,-0.325 -1.23,-0.559c-3.286,-2.015 -4.925,-9.979 -2.762,-13.181c2.145,-3.174 5.311,-4.973 8.645,-6.561c3.207,-0.379 6.414,-0.757 9.618,-1.133" style="fill:#fff;fill-rule:nonzero;"/><path d="M332.844,162.993c0.03,-0.993 0.178,-2.154 -1.476,-1.528c-5.414,2.046 -10.936,1.663 -16.485,0.75c-0.691,-0.113 -1.565,-0.672 -2.043,0.135c-0.405,0.688 0.229,1.409 0.575,2.046c2.113,3.886 7.344,6.367 12.185,5.808c3.554,-0.302 7.139,-3.638 7.244,-7.211m63.842,0.688c-0.248,1.722 -1.555,2.432 -3.093,2.807c-0.942,0.229 -1.876,0.583 -2.828,0.637c-1.636,0.092 -2.702,0.872 -3.695,2.129c-2.777,3.517 -5.954,6.669 -9.317,9.624c-8.094,7.109 -17.189,12.561 -27.305,16.274c-1.368,0.502 -1.679,1.12 -1.061,2.486c4.769,10.512 8.175,21.613 13.689,31.806c0.356,0.656 0.785,1.32 0.456,2.105c-0.831,1.97 -0.143,3.59 1.009,5.195c0.91,1.268 1.711,2.626 2.451,4.002c4.472,8.296 5.805,21.548 -3.185,31.026c-4.016,4.237 -8.801,7.319 -13.913,9.962c-1.684,0.872 -2.254,1.803 -1.471,3.711c1.034,2.513 1.317,5.201 0.572,7.886c-0.742,2.669 -2.666,3.509 -5.101,2.308c-1.371,-0.675 -2.44,-1.684 -3.382,-2.864c-3.325,-4.162 -5.948,-8.744 -8.137,-13.581c-0.394,-0.874 -0.675,-1.822 -0.866,-2.761c-0.443,-2.175 0.07,-3.984 2.159,-5.131c0.864,-0.478 1.787,-1.112 1.784,-2.146c0,-1.781 1.093,-2.062 2.448,-2.21c2.845,-0.31 5.565,-0.993 8.008,-2.575c1.517,-0.985 2.577,-2.302 2.858,-4.092c0.91,-5.803 -1.911,-10.088 -5.978,-14.469c0.302,4.237 0.645,7.929 -0.294,11.584c-1.757,6.842 -6.448,10.256 -13.486,9.654c-1.7,-0.146 -3.392,-0.48 -5.066,-0.826c-2.262,-0.464 -4.513,-0.993 -6.753,-1.552c-1.193,-0.3 -1.792,0.051 -2.051,1.29c-0.318,1.528 -0.713,3.058 -1.549,4.41c-1.479,2.391 -3.106,2.569 -4.952,0.475c-1.393,-1.582 -2.41,-3.414 -3.101,-5.4c-1.857,-5.333 -2.596,-10.86 -2.653,-16.477c-0.038,-3.581 0.046,-3.587 3.603,-4.351c0.796,-0.173 1.698,-0.17 1.738,-1.328c0.019,-0.596 -0.03,-1.317 0.659,-1.517c0.818,-0.238 1.125,0.569 1.538,1.055c2,2.367 4.461,3.973 7.573,4.324c1.622,0.184 3.182,-0.094 3.738,-2.032c0.591,-2.054 -0.154,-4.151 -1.911,-4.912c-2.048,-0.888 -4.11,-1.851 -6.27,-2.353c-2.397,-0.559 -2.78,-1.967 -2.683,-4.067c0.238,-5.141 0.834,-10.245 1.349,-15.359c0.402,-4 0.723,-8.01 0.99,-12.021c0.175,-2.634 -0.14,-2.896 -2.675,-2.64c-3.047,0.31 -6.102,0.238 -9.149,0.124c-12.067,-0.451 -23.013,-4.353 -33.245,-10.639c-3.352,-2.057 -6.105,-5.819 -11.044,-4.221c-1.228,0.397 -2.507,-0.707 -1.32,-2.362c0.696,-0.972 -0.17,-0.883 -0.613,-1.109c-1.914,-0.993 -2.097,-2.035 -0.456,-3.517c0.842,-0.758 1.08,-1.112 -0.167,-1.641c-0.912,-0.386 -1.622,-1.177 -1.43,-2.286c0.192,-1.098 1.193,-1.239 2.078,-1.352c1.789,-0.227 2.089,-0.866 0.775,-2.21c-0.696,-0.71 -1.185,-1.663 -0.667,-2.645c0.545,-1.036 1.652,-0.845 2.604,-0.783c0.742,0.046 1.476,0.205 2.208,0.337c1.657,0.305 2.642,0.027 2.086,-2.032c-0.238,-0.885 -0.521,-2.046 0.642,-2.564c1.169,-0.518 2.367,-0.294 3.36,0.537c1.055,0.88 1.703,2.081 2.194,3.33c0.92,2.343 2.583,3.886 4.745,5.122c8.534,4.885 17.651,7.948 27.45,8.806c6.45,0.564 12.828,0.162 19.313,-2.259c-3.357,-0.623 -6.388,-1.017 -9.314,-1.927c-3.004,-0.931 -5.854,-2.205 -8.604,-3.716c-0.715,-0.394 -1.46,-0.17 -2.191,-0.105c-6.07,0.54 -11.3,-4.88 -10.142,-10.868c0.464,-2.394 0.337,-4.518 -0.389,-6.745c-0.345,-1.058 -0.596,-2.165 -0.731,-3.266c-1.193,-9.727 2.356,-17.786 9.268,-24.303c2.912,-2.745 5.514,-5.214 5.066,-9.565c-0.049,-0.486 0.178,-1.028 0.364,-1.511c0.664,-1.703 1.287,-3.452 3.228,-4.34c0.551,1.455 -0.192,2.791 0.113,4.097c0.146,0.632 -0.027,1.484 0.734,1.743c0.75,0.254 1.217,-0.437 1.649,-0.92c3.02,-3.36 4.054,-7.203 2.761,-11.597c-0.2,-0.68 -0.766,-1.476 0.103,-2.011c0.775,-0.478 1.409,0.189 1.986,0.623c2.1,1.584 3.285,3.805 4.245,6.186c1.031,2.556 1.188,5.293 1.522,8.205c1.331,-0.71 1.49,-1.735 1.517,-2.756c0.024,-1.039 -0.113,-2.081 -0.162,-3.123c-0.094,-2.132 0.413,-2.542 2.486,-2.035c3.441,0.845 5.185,4.526 3.797,8.453c-0.486,1.374 -0.208,1.854 1.093,2.175c3.195,0.785 6.218,2.073 9.233,3.36c4.426,1.892 8.537,4.324 11.805,7.902c6.202,6.79 7.087,18.099 2.345,27.243c-2.707,5.217 -6.55,9.376 -11.287,12.779c-0.861,0.618 -1.787,1.206 -2.389,2.405c0.559,0.038 0.861,0.138 1.117,0.067c12.377,-3.422 23.88,-8.515 33.032,-17.845c2.845,-2.904 6.261,-5.662 5.028,-10.685c-0.345,-1.414 1.074,-2.491 2.375,-2.869c1.525,-0.445 1.579,1.071 1.806,1.981c0.462,1.86 1.188,2.065 2.451,0.65c0.294,-0.332 0.645,-0.637 1.023,-0.864c0.739,-0.443 1.439,-1.385 2.362,-0.912c0.931,0.472 0.637,1.56 0.613,2.44c-0.019,0.696 -0.062,1.39 -0.103,2.251c1.638,-0.931 3.158,-2.013 4.777,-1.166c1.49,0.78 0.297,2.264 0.297,3.438c2.971,-0.259 4.375,1.452 1.487,5.705c1.25,0.497 2.661,0.99 2.415,2.696" style="fill:#e30613;fill-rule:nonzero;"/><path d="M332.844,162.993c0.03,-0.993 0.178,-2.154 -1.476,-1.528c-5.414,2.046 -10.936,1.663 -16.485,0.75c-0.691,-0.113 -1.565,-0.672 -2.043,0.135c-0.405,0.688 0.229,1.409 0.575,2.046c2.113,3.886 7.344,6.367 12.185,5.808c3.554,-0.302 7.139,-3.638 7.244,-7.211Zm63.842,0.688c-0.248,1.722 -1.555,2.432 -3.093,2.807c-0.942,0.229 -1.876,0.583 -2.828,0.637c-1.636,0.092 -2.702,0.872 -3.695,2.129c-2.777,3.517 -5.954,6.669 -9.317,9.624c-8.094,7.109 -17.189,12.561 -27.305,16.274c-1.368,0.502 -1.679,1.12 -1.061,2.486c4.769,10.512 8.175,21.613 13.689,31.806c0.356,0.656 0.785,1.32 0.456,2.105c-0.831,1.97 -0.143,3.59 1.009,5.195c0.91,1.268 1.711,2.626 2.451,4.002c4.472,8.296 5.805,21.548 -3.185,31.026c-4.016,4.237 -8.801,7.319 -13.913,9.962c-1.684,0.872 -2.254,1.803 -1.471,3.711c1.034,2.513 1.317,5.201 0.572,7.886c-0.742,2.669 -2.666,3.509 -5.101,2.308c-1.371,-0.675 -2.44,-1.684 -3.382,-2.864c-3.325,-4.162 -5.948,-8.744 -8.137,-13.581c-0.394,-0.874 -0.675,-1.822 -0.866,-2.761c-0.443,-2.175 0.07,-3.984 2.159,-5.131c0.864,-0.478 1.787,-1.112 1.784,-2.146c0,-1.781 1.093,-2.062 2.448,-2.21c2.845,-0.31 5.565,-0.993 8.008,-2.575c1.517,-0.985 2.577,-2.302 2.858,-4.092c0.91,-5.803 -1.911,-10.088 -5.978,-14.469c0.302,4.237 0.645,7.929 -0.294,11.584c-1.757,6.842 -6.448,10.256 -13.486,9.654c-1.7,-0.146 -3.392,-0.48 -5.066,-0.826c-2.262,-0.464 -4.513,-0.993 -6.753,-1.552c-1.193,-0.3 -1.792,0.051 -2.051,1.29c-0.318,1.528 -0.713,3.058 -1.549,4.41c-1.479,2.391 -3.106,2.569 -4.952,0.475c-1.393,-1.582 -2.41,-3.414 -3.101,-5.4c-1.857,-5.333 -2.596,-10.86 -2.653,-16.477c-0.038,-3.581 0.046,-3.587 3.603,-4.351c0.796,-0.173 1.698,-0.17 1.738,-1.328c0.019,-0.596 -0.03,-1.317 0.659,-1.517c0.818,-0.238 1.125,0.569 1.538,1.055c2,2.367 4.461,3.973 7.573,4.324c1.622,0.184 3.182,-0.094 3.738,-2.032c0.591,-2.054 -0.154,-4.151 -1.911,-4.912c-2.048,-0.888 -4.11,-1.851 -6.27,-2.353c-2.397,-0.559 -2.78,-1.967 -2.683,-4.067c0.238,-5.141 0.834,-10.245 1.349,-15.359c0.402,-4 0.723,-8.01 0.99,-12.021c0.175,-2.634 -0.14,-2.896 -2.675,-2.64c-3.047,0.31 -6.102,0.238 -9.149,0.124c-12.067,-0.451 -23.013,-4.353 -33.245,-10.639c-3.352,-2.057 -6.105,-5.819 -11.044,-4.221c-1.228,0.397 -2.507,-0.707 -1.32,-2.362c0.696,-0.972 -0.17,-0.883 -0.613,-1.109c-1.914,-0.993 -2.097,-2.035 -0.456,-3.517c0.842,-0.758 1.08,-1.112 -0.167,-1.641c-0.912,-0.386 -1.622,-1.177 -1.43,-2.286c0.192,-1.098 1.193,-1.239 2.078,-1.352c1.789,-0.227 2.089,-0.866 0.775,-2.21c-0.696,-0.71 -1.185,-1.663 -0.667,-2.645c0.545,-1.036 1.652,-0.845 2.604,-0.783c0.742,0.046 1.476,0.205 2.208,0.337c1.657,0.305 2.642,0.027 2.086,-2.032c-0.238,-0.885 -0.521,-2.046 0.642,-2.564c1.169,-0.518 2.367,-0.294 3.36,0.537c1.055,0.88 1.703,2.081 2.194,3.33c0.92,2.343 2.583,3.886 4.745,5.122c8.534,4.885 17.651,7.948 27.45,8.806c6.45,0.564 12.828,0.162 19.313,-2.259c-3.357,-0.623 -6.388,-1.017 -9.314,-1.927c-3.004,-0.931 -5.854,-2.205 -8.604,-3.716c-0.715,-0.394 -1.46,-0.17 -2.191,-0.105c-6.07,0.54 -11.3,-4.88 -10.142,-10.868c0.464,-2.394 0.337,-4.518 -0.389,-6.745c-0.345,-1.058 -0.596,-2.165 -0.731,-3.266c-1.193,-9.727 2.356,-17.786 9.268,-24.303c2.912,-2.745 5.514,-5.214 5.066,-9.565c-0.049,-0.486 0.178,-1.028 0.364,-1.511c0.664,-1.703 1.287,-3.452 3.228,-4.34c0.551,1.455 -0.192,2.791 0.113,4.097c0.146,0.632 -0.027,1.484 0.734,1.743c0.75,0.254 1.217,-0.437 1.649,-0.92c3.02,-3.36 4.054,-7.203 2.761,-11.597c-0.2,-0.68 -0.766,-1.476 0.103,-2.011c0.775,-0.478 1.409,0.189 1.986,0.623c2.1,1.584 3.285,3.805 4.245,6.186c1.031,2.556 1.188,5.293 1.522,8.205c1.331,-0.71 1.49,-1.735 1.517,-2.756c0.024,-1.039 -0.113,-2.081 -0.162,-3.123c-0.094,-2.132 0.413,-2.542 2.486,-2.035c3.441,0.845 5.185,4.526 3.797,8.453c-0.486,1.374 -0.208,1.854 1.093,2.175c3.195,0.785 6.218,2.073 9.233,3.36c4.426,1.892 8.537,4.324 11.805,7.902c6.202,6.79 7.087,18.099 2.345,27.243c-2.707,5.217 -6.55,9.376 -11.287,12.779c-0.861,0.618 -1.787,1.206 -2.389,2.405c0.559,0.038 0.861,0.138 1.117,0.067c12.377,-3.422 23.88,-8.515 33.032,-17.845c2.845,-2.904 6.261,-5.662 5.028,-10.685c-0.345,-1.414 1.074,-2.491 2.375,-2.869c1.525,-0.445 1.579,1.071 1.806,1.981c0.462,1.86 1.188,2.065 2.451,0.65c0.294,-0.332 0.645,-0.637 1.023,-0.864c0.739,-0.443 1.439,-1.385 2.362,-0.912c0.931,0.472 0.637,1.56 0.613,2.44c-0.019,0.696 -0.062,1.39 -0.103,2.251c1.638,-0.931 3.158,-2.013 4.777,-1.166c1.49,0.78 0.297,2.264 0.297,3.438c2.971,-0.259 4.375,1.452 1.487,5.705c1.25,0.497 2.661,0.99 2.415,2.696Z" style="fill:none;fill-rule:nonzero;stroke:#fff;stroke-width:4.17px;stroke-linecap:butt;stroke-linejoin:miter;stroke-miterlimit:10;"/><path d="M289.081,112.303c-0.381,-2.745 -0.758,-5.465 -2.208,-7.919c-0.788,-1.333 -1.851,-2.324 -3.22,-2.998c-0.742,-0.367 -1.552,-0.721 -2.283,-0.024c-0.656,0.623 -0.399,1.379 -0.103,2.078c0.613,1.439 1.252,2.866 1.881,4.299c0.3,0.68 0.637,1.349 0.896,2.043c1.43,3.851 1.031,4.634 -2.815,5.565c-8.798,2.132 -12.744,7.079 -13.09,16.417c-0.038,1.042 -0.07,2.084 -0.078,3.128c-0.008,0.945 -0.329,1.641 -1.387,1.636c-1.598,-0.008 -1.746,1.023 -1.762,2.248c-0.024,1.752 0.578,3.271 1.876,4.378c1.193,1.017 1.824,2.264 2.383,3.681c1.735,4.418 4.283,8.194 8.82,10.21c2.353,1.044 2.818,0.915 3.643,-1.46c4.324,-12.436 7.738,-25.065 7.705,-38.375c-0.003,-1.636 -0.167,-3.271 -0.259,-4.907" style="fill:#e30613;fill-rule:nonzero;"/><path d="M289.081,112.303c-0.381,-2.745 -0.758,-5.465 -2.208,-7.919c-0.788,-1.333 -1.851,-2.324 -3.22,-2.998c-0.742,-0.367 -1.552,-0.721 -2.283,-0.024c-0.656,0.623 -0.399,1.379 -0.103,2.078c0.613,1.439 1.252,2.866 1.881,4.299c0.3,0.68 0.637,1.349 0.896,2.043c1.43,3.851 1.031,4.634 -2.815,5.565c-8.798,2.132 -12.744,7.079 -13.09,16.417c-0.038,1.042 -0.07,2.084 -0.078,3.128c-0.008,0.945 -0.329,1.641 -1.387,1.636c-1.598,-0.008 -1.746,1.023 -1.762,2.248c-0.024,1.752 0.578,3.271 1.876,4.378c1.193,1.017 1.824,2.264 2.383,3.681c1.735,4.418 4.283,8.194 8.82,10.21c2.353,1.044 2.818,0.915 3.643,-1.46c4.324,-12.436 7.738,-25.065 7.705,-38.375c-0.003,-1.636 -0.167,-3.271 -0.259,-4.907Z" style="fill:none;fill-rule:nonzero;stroke:#fff;stroke-width:4.17px;stroke-linecap:butt;stroke-linejoin:miter;stroke-miterlimit:10;"/><path d="M236.821,38.838c-0.426,0.276 -0.715,1.036 -0.849,2.266c-0.061,0.528 -0.012,1.068 0.02,1.551l0.045,0.768c0.747,3.927 2.42,7.655 4.256,11.399c2.855,-3.237 4.528,-6.745 5.088,-10.68c-0.394,0.966 -1.226,2.473 -3.208,2.473l-0.215,0l-0.617,-0.093c-2.197,-0.479 -2.818,-2.477 -3.192,-3.671c-0.069,-0.236 -0.142,-0.467 -0.227,-0.678c-0.089,-0.227 -0.162,-0.467 -0.231,-0.707c-0.045,-0.142 -0.073,-0.288 -0.138,-0.418c-0.309,-0.573 -0.467,-1.19 -0.605,-1.73c-0.037,-0.142 -0.077,-0.317 -0.126,-0.479m2.177,25.653c-2.392,0 -3.509,-2.441 -3.874,-3.241c-2.392,-5.218 -4.715,-10.912 -5.547,-17.186l-0.081,-0.658c-0.065,-0.512 -0.13,-1.019 -0.175,-1.527c-0.418,-5.222 1.568,-9.202 5.068,-10.148c0.727,-0.199 1.429,-0.296 2.095,-0.296c3.789,0 5.645,3.127 6.558,5.04c0.057,-0.037 0.114,-0.077 0.166,-0.114c1.535,-1.019 2.879,-1.519 4.11,-1.519c1.421,0 3.911,0.678 4.654,5.218c0.301,1.815 0.52,3.748 0.146,5.608c-1.178,5.799 -4.134,11.017 -9.576,16.906c-1.19,1.291 -2.351,1.917 -3.545,1.917" style="fill:#36a9e1;fill-rule:nonzero;"/><path d="M240.704,50.936c-0.435,-0.971 -0.845,-1.945 -1.214,-2.936c0.418,0.215 0.889,0.39 1.425,0.504c0.353,0.077 0.707,0.122 1.052,0.138c-0.357,0.78 -0.78,1.547 -1.263,2.294m-4.219,-21.531c-0.845,0 -1.726,0.122 -2.623,0.365c-4.495,1.214 -7.07,6.03 -6.562,12.264c0.045,0.54 0.114,1.08 0.183,1.62l0.077,0.617c0.873,6.599 3.261,12.463 5.718,17.823c1.673,3.659 4.037,4.426 5.726,4.426c2.66,0 4.447,-1.937 5.036,-2.571c3.842,-4.162 8.459,-9.953 10.071,-17.884c0.443,-2.189 0.199,-4.341 -0.13,-6.339c-1.027,-6.242 -5.003,-6.916 -6.66,-6.916c-1.129,0 -2.286,0.288 -3.513,0.873c-1.352,-2.067 -3.606,-4.28 -7.322,-4.28m3.529,28.081c0.463,0 0.946,-0.378 1.446,-0.926c3.496,-3.821 5.645,-8.268 6.087,-13.454c0.089,-1.076 0.467,-2.566 -1.117,-2.908c-0.118,-0.024 -0.231,-0.037 -0.333,-0.037c-0.991,0 -1.421,1.06 -1.978,1.831c-0.625,0.877 -0.638,2.587 -1.945,2.587c-0.122,0 -0.256,-0.012 -0.398,-0.045c-1.336,-0.288 -1.498,-1.937 -1.965,-3.111c-0.171,-0.435 -0.248,-0.91 -0.463,-1.32c-0.642,-1.214 -0.451,-3.415 -2.177,-3.415c-0.057,0 -0.118,0 -0.179,0.008c-2.124,0.175 -2.822,2.221 -3.038,4.179c-0.102,0.914 0.028,1.86 0.049,2.607c0.873,4.715 2.786,8.832 4.804,12.914c0.386,0.78 0.788,1.088 1.206,1.088m-3.529,-24.02c2.631,0 3.963,2.169 5.027,4.536c0.394,0.865 0.759,1.161 1.117,1.161c0.556,0 1.101,-0.711 1.702,-1.109c1.182,-0.784 2.173,-1.182 2.989,-1.182c1.393,0 2.266,1.157 2.652,3.517c0.264,1.596 0.471,3.318 0.158,4.869c-1.275,6.274 -4.808,11.314 -9.076,15.935c-0.804,0.873 -1.474,1.267 -2.051,1.267c-0.808,0 -1.442,-0.759 -2.035,-2.055c-2.441,-5.328 -4.601,-10.745 -5.377,-16.609c-0.085,-0.698 -0.187,-1.393 -0.244,-2.091c-0.333,-4.081 1.027,-7.326 3.574,-8.016c0.569,-0.154 1.088,-0.223 1.563,-0.223" style="fill:#fff;fill-rule:nonzero;"/></g></svg>